{"glyphs":{"0":{"ha":581,"x_min":-4,"x_max":557,"o":"m 557 439 l 556 475 q 553 502 554 489 q 550 529 553 515 q 456 729 532 647 q 271 857 392 796 q -4 404 -4 667 l -4 378 q 88 128 -4 242 q 293 -4 160 39 q 404 98 357 49 q 482 193 451 147 q 557 439 557 307 m 467 374 q 381 114 467 229 q 214 199 285 136 q 160 260 185 225 q 119 333 136 294 q 94 414 103 372 q 85 497 85 456 q 176 750 85 618 q 353 654 275 724 q 467 374 467 550 z "},"1":{"ha":397,"x_min":-6,"x_max":371,"o":"m 371 131 l 354 147 l 301 101 l 244 146 l 244 678 q 206 801 244 757 q 143 857 192 818 l -6 729 l 8 711 l 61 754 q 118 649 118 706 l 118 169 q 81 104 118 135 l 222 -4 l 371 131 z "},"2":{"ha":611,"x_min":8,"x_max":574,"o":"m 574 111 q 365 163 481 163 q 88 101 251 163 q 292 275 153 190 q 481 410 442 368 q 564 644 564 499 l 564 674 l 267 857 l 28 663 l 113 576 l 347 763 q 424 603 424 694 q 392 486 424 547 q 288 357 356 421 q 226 302 257 329 q 164 247 196 275 q 8 -3 36 132 q 246 44 133 44 q 476 -3 356 44 l 574 111 z "},"3":{"ha":611,"x_min":7,"x_max":568,"o":"m 568 240 l 568 247 q 364 451 568 382 q 536 668 536 532 l 536 692 q 535 703 536 699 q 533 714 535 708 l 256 853 l 63 708 l 139 628 l 303 750 q 347 767 325 767 q 400 688 400 767 l 400 682 q 165 464 400 486 l 165 435 l 197 435 q 382 367 324 435 q 431 224 431 310 q 360 44 431 117 l 97 268 l 7 179 l 225 -4 q 351 17 296 1 q 450 56 407 32 q 568 240 568 119 z "},"4":{"ha":611,"x_min":-4,"x_max":578,"o":"m 578 275 l 550 376 l 433 376 l 433 713 q 333 857 433 800 l -4 393 l 31 276 l 313 276 l 313 182 q 265 90 313 142 l 413 -4 l 540 113 l 528 131 l 486 99 l 432 138 l 432 275 l 578 275 m 310 376 l 33 376 l 28 393 l 276 728 q 291 713 286 719 q 299 704 296 707 q 310 678 310 689 l 310 376 z "},"5":{"ha":581,"x_min":1,"x_max":546,"o":"m 540 325 q 486 493 546 410 q 339 600 431 564 l 100 439 l 140 719 l 453 719 l 490 839 l 126 839 l 54 371 l 243 496 q 386 408 329 467 q 451 258 451 343 q 358 64 451 157 l 81 229 l 1 140 l 242 -4 q 436 85 364 21 q 536 274 528 164 l 540 325 z "},"6":{"ha":581,"x_min":0,"x_max":556,"o":"m 556 344 q 393 571 556 500 l 121 392 l 117 425 q 229 750 117 618 l 431 642 l 514 746 l 297 857 q 0 365 0 639 q 79 129 0 226 q 290 -4 154 36 q 426 99 382 56 q 556 344 556 217 m 454 258 q 371 104 454 168 q 209 191 267 131 q 125 360 151 251 l 257 450 q 297 461 275 461 q 408 389 361 461 q 454 258 454 324 z "},"7":{"ha":582,"x_min":8,"x_max":557,"o":"m 557 811 l 557 839 l 111 839 q 8 633 44 694 l 24 621 q 149 721 71 676 l 447 721 q 96 -3 126 375 l 256 57 q 335 463 256 276 q 557 811 403 622 z "},"8":{"ha":581,"x_min":0,"x_max":542,"o":"m 542 313 q 382 508 542 453 q 469 572 435 533 q 511 668 513 619 l 510 699 q 225 858 472 836 q 156 795 186 826 q 101 733 125 764 q 26 578 29 644 l 25 551 q 146 410 18 451 q 0 196 0 301 q 11 138 0 167 q 275 -4 71 -4 l 288 -4 q 542 313 542 138 m 435 614 q 411 556 435 583 q 360 511 401 544 q 291 521 324 517 q 231 529 258 525 q 97 629 97 550 q 146 743 97 674 q 435 632 407 743 l 435 614 m 489 235 q 435 144 489 175 q 313 113 382 113 q 167 150 235 113 q 86 267 86 193 q 168 407 86 336 q 306 382 286 388 q 433 331 386 361 q 489 235 489 293 z "},"9":{"ha":581,"x_min":-3,"x_max":549,"o":"m 549 478 l 549 483 q 261 858 549 764 q 169 791 208 822 q 104 733 131 760 q -3 501 -3 622 q 158 275 -3 350 l 428 460 l 431 424 q 406 247 436 344 q 321 103 381 165 l 118 204 l 36 103 l 251 -6 q 549 478 549 208 m 425 490 l 294 401 q 250 388 275 388 q 136 457 185 388 q 90 588 90 521 q 176 744 90 686 q 271 711 231 732 q 340 660 311 690 q 390 588 369 629 q 425 490 410 546 z "},"‛":{"ha":694,"x_min":88,"x_max":608,"o":"m 88 0 l 608 0 l 608 1256 l 88 1256 l 88 0 m 174 88 l 174 1169 l 521 1169 l 521 88 l 174 88 z "},"‟":{"ha":694,"x_min":88,"x_max":608,"o":"m 88 0 l 608 0 l 608 1256 l 88 1256 l 88 0 m 174 88 l 174 1169 l 521 1169 l 521 88 l 174 88 z "},"\u001a":{"ha":610,"x_min":4,"x_max":572,"o":"m 550 853 l 447 853 l 414 711 l 432 711 l 550 853 m 572 96 l 558 108 l 533 92 q 494 136 501 108 l 494 521 l 529 560 l 446 629 l 215 629 l 215 771 l 335 746 l 363 842 l 229 874 q 78 771 150 803 l 78 629 l 17 629 l 4 558 l 75 558 l 75 201 q 40 101 75 136 q 240 -4 165 53 l 361 104 q 446 -7 372 35 l 572 96 m 360 158 l 358 132 l 315 97 l 215 161 l 215 558 l 360 558 l 360 158 z "},"\u001b":{"ha":676,"x_min":4,"x_max":661,"o":"m 661 104 l 644 122 l 611 97 l 510 161 l 510 746 q 578 871 510 821 q 439 807 499 860 q 374 672 374 750 l 374 201 q 315 97 374 124 l 215 161 l 215 558 l 310 558 l 319 629 l 215 629 l 215 771 l 335 746 l 363 842 l 229 874 q 78 771 150 803 l 78 629 l 17 629 l 4 558 l 75 558 l 75 201 q 40 101 75 136 q 240 -4 165 53 l 353 96 q 535 -4 469 53 l 661 104 z "},"\u001c":{"ha":850,"x_min":-12,"x_max":814,"o":"m 399 275 q 235 82 358 178 l 231 86 q 319 246 292 182 l 399 275 m 703 553 l 665 539 l 640 482 l 536 444 q 541 495 539 468 q 543 551 543 522 l 543 617 q 542 644 543 628 q 538 683 540 661 q 533 724 535 707 q 532 751 532 740 q 661 897 532 878 l 658 907 q 478 856 535 907 q 417 679 417 799 l 418 667 q 422 551 418 628 q 426 484 425 513 q 428 436 428 456 q 428 419 428 428 q 426 404 428 411 l 347 375 q 349 399 349 386 q 349 424 349 411 q 347 468 349 439 q 346 513 346 497 q 344 545 346 526 q 340 590 343 564 q 336 635 338 617 q 335 667 335 654 q 449 899 335 801 l 444 906 q 409 891 422 896 q 393 885 396 886 q 336 876 364 876 q 256 893 314 876 q 163 911 201 911 l 151 911 q -10 765 21 911 l 0 757 q 82 817 39 817 q 106 814 92 817 q 143 806 121 811 q 210 794 190 794 q 333 832 272 794 q 250 710 276 767 q 224 579 221 646 l 226 513 q 201 518 211 518 l 178 518 q 85 461 110 518 l 118 463 q 203 435 171 465 q 236 354 236 406 l 235 346 q 182 353 204 353 q 119 328 149 353 q 175 313 150 324 l 54 268 l -12 86 l 29 101 l 56 149 l 236 215 l 236 200 q 86 0 221 106 l 94 -14 q 390 64 261 64 q 661 -33 543 64 l 814 113 l 793 132 q 746 101 758 101 q 718 114 736 101 q 690 132 703 125 q 668 144 678 139 q 538 175 613 175 q 335 136 460 175 l 332 142 q 493 308 447 224 l 638 361 l 703 553 z "},"\u001d":{"ha":415,"x_min":4,"x_max":375,"o":"m 300 544 l 282 536 l 282 486 l 224 458 l 224 746 q 292 872 224 822 q 149 801 213 861 l 133 800 q 40 844 93 832 q 88 756 88 797 l 88 396 l 6 361 l 4 193 l 24 197 l 24 239 l 88 271 l 88 201 q 51 101 88 142 q 249 -4 183 53 l 375 104 l 358 122 l 325 97 l 224 161 l 224 335 l 301 372 l 300 544 z "},"\u001e":{"ha":789,"x_min":11,"x_max":747,"o":"m 747 150 l 726 165 l 682 115 q 474 164 581 164 q 294 133 390 164 q 214 105 258 122 q 117 64 169 88 l 114 69 q 303 244 222 163 q 438 396 385 325 l 619 396 l 639 439 l 468 439 l 508 504 l 669 504 l 690 549 l 538 549 q 634 738 586 653 q 729 892 682 824 l 724 899 q 469 849 567 849 q 206 910 356 849 l 140 829 q 107 790 124 808 q 74 753 90 771 l 93 735 l 136 779 q 319 744 226 744 q 651 846 471 744 q 357 547 460 675 l 176 547 l 158 503 l 325 503 l 283 438 l 125 438 l 106 394 l 260 394 q 156 218 193 281 q 113 143 119 156 q 60 67 86 103 q 11 3 35 32 l 19 -4 q 315 60 193 60 l 331 60 q 611 -14 440 60 q 672 61 650 35 q 699 93 693 88 l 747 150 m 586 1190 l 565 1206 q 403 1065 479 1158 q 238 1207 340 1146 l 219 1190 q 369 976 310 1083 l 439 976 q 586 1190 500 1081 z "},"\u001f":{"ha":390,"x_min":0,"x_max":381,"o":"m 347 217 q 289 332 347 290 q 161 368 236 368 l 331 538 q 242 585 292 543 q 200 622 218 606 q 171 649 182 638 l 0 533 l 13 514 l 89 564 l 207 453 l 13 263 q 103 274 64 274 q 187 249 157 274 q 217 174 217 225 q 196 103 217 133 q 136 42 182 81 l 69 -12 q 40 -89 40 -44 q 67 -156 40 -129 q 135 -183 94 -183 q 171 -157 171 -172 q 150 -142 171 -142 q 124 -146 142 -142 q 97 -150 106 -150 q 53 -97 53 -137 q 99 -22 53 -50 q 213 41 174 18 q 260 68 253 64 q 347 217 347 124 m 381 950 l 360 965 q 197 825 274 918 q 32 967 135 906 l 14 950 q 164 736 104 843 l 233 736 q 381 950 294 840 z "}," ":{"ha":447,"x_min":0,"x_max":0,"o":""},"!":{"ha":250,"x_min":0,"x_max":217,"o":"m 217 790 l 113 910 l 10 790 q 43 663 28 728 q 69 528 58 599 q 103 265 86 429 l 125 265 q 158 529 142 424 q 217 790 182 678 m 217 96 q 114 207 140 171 l 0 101 q 104 -7 47 36 l 217 96 z "},"\"":{"ha":368,"x_min":32,"x_max":343,"o":"m 343 907 l 343 926 q 328 978 343 956 q 285 1001 313 1001 q 225 926 225 1001 l 278 596 l 297 596 l 343 907 m 143 907 l 143 926 q 127 978 143 954 q 85 1001 111 1001 q 32 931 32 1001 l 32 907 l 76 596 l 97 596 l 143 907 z "},"#":{"ha":772,"x_min":69,"x_max":713,"o":"m 504 296 q 635 290 608 296 q 657 390 638 344 q 599 386 631 388 q 528 385 567 385 l 564 526 q 688 521 656 526 q 713 621 689 564 q 659 617 690 618 q 588 615 628 615 q 630 759 606 685 q 686 917 654 833 q 626 911 658 911 q 568 917 592 911 q 543 791 558 867 q 504 614 528 715 q 464 612 483 613 q 426 611 444 611 q 399 612 415 611 q 361 614 382 613 q 401 753 376 678 q 460 917 426 828 q 400 911 432 911 q 342 917 365 911 q 317 794 333 869 q 278 615 301 719 q 147 621 174 615 q 140 569 146 594 q 125 521 135 544 q 185 525 153 524 q 254 526 217 526 l 218 385 q 94 390 126 385 q 69 290 92 346 q 123 294 92 293 q 194 296 154 296 q 152 152 176 226 q 96 -4 128 78 q 156 0 126 0 q 214 -4 186 0 q 239 120 224 44 q 278 297 254 196 q 318 299 299 299 q 356 300 338 300 q 383 299 367 300 q 421 297 400 299 q 381 160 406 235 q 322 -4 356 85 q 382 0 353 0 q 440 -4 413 0 q 465 117 449 42 q 504 296 481 192 m 368 381 q 340 381 357 381 q 300 383 322 382 l 338 528 q 380 530 361 529 q 414 531 399 531 q 442 530 425 531 q 482 528 460 529 l 444 383 q 402 381 421 382 q 368 381 383 381 z "},"$":{"ha":611,"x_min":0,"x_max":575,"o":"m 575 336 l 575 343 q 471 569 575 478 q 319 482 403 522 l 319 738 l 463 704 l 506 808 l 319 850 l 319 943 l 251 943 l 251 856 q 164 832 206 850 q 90 785 122 814 q 36 719 58 757 q 6 636 14 682 q 0 594 0 610 l 0 578 q 31 441 0 507 q 117 336 63 375 q 185 375 154 357 q 215 392 199 382 q 250 415 231 403 l 251 126 l 40 175 l 0 75 l 251 13 l 251 -139 l 318 -139 l 318 -1 q 575 336 575 139 m 251 450 l 226 444 q 122 521 161 444 q 90 656 90 588 q 122 779 90 732 l 251 750 l 251 450 m 467 301 q 399 88 467 169 l 319 106 l 318 446 q 367 457 360 457 q 446 403 418 457 q 467 301 467 358 z "},"%":{"ha":940,"x_min":0,"x_max":915,"o":"m 911 261 l 907 313 q 836 436 892 386 q 713 508 797 471 q 578 393 625 453 q 517 231 517 315 l 519 221 q 729 -4 519 63 q 879 143 838 76 q 911 261 915 204 m 736 858 l 665 858 l 168 -4 l 239 -4 l 736 858 m 388 613 l 386 660 q 315 785 371 735 q 192 857 271 822 q 0 583 0 749 l 0 571 q 204 339 0 415 q 332 458 292 406 q 388 613 390 535 m 840 213 q 783 76 840 133 q 646 150 703 90 q 590 289 590 207 q 650 432 590 372 q 825 292 775 408 q 840 213 840 238 m 319 560 q 258 426 319 485 q 124 499 178 440 q 69 636 69 557 q 131 782 69 714 q 304 638 260 753 q 319 560 319 596 z "},"&":{"ha":879,"x_min":7,"x_max":832,"o":"m 832 378 l 829 382 l 806 379 q 688 429 739 379 l 522 294 l 392 525 q 438 562 419 547 q 465 585 456 576 q 550 707 536 649 l 556 753 q 456 910 556 839 l 194 776 q 135 699 135 739 q 149 661 135 679 l 264 460 l 7 254 l 182 -14 l 425 183 q 510 60 472 97 q 642 3 567 3 l 646 6 q 831 160 790 6 l 822 164 q 713 117 779 117 q 582 194 636 117 q 564 225 575 206 q 538 272 553 244 l 622 338 q 714 296 669 296 q 832 378 779 296 m 463 683 l 458 643 q 425 590 451 615 q 376 550 415 581 l 297 696 q 283 742 283 719 q 306 794 283 772 q 358 817 328 817 q 422 793 394 817 q 463 683 463 749 m 410 211 l 281 106 l 139 326 l 281 435 l 410 211 z "},"'":{"ha":219,"x_min":-7,"x_max":190,"o":"m 190 814 q 128 872 153 849 q 92 910 103 896 l -7 811 q 50 718 50 754 q -6 632 50 686 l 14 606 q 190 814 140 682 z "},"(":{"ha":368,"x_min":6,"x_max":331,"o":"m 331 13 l 313 28 l 279 -4 q 110 501 110 231 q 310 1079 110 806 l 296 1092 q 83 750 160 943 q 6 360 6 554 q 200 -171 6 51 l 331 13 z "},")":{"ha":368,"x_min":1,"x_max":325,"o":"m 325 558 q 132 1089 325 871 l 1 906 l 19 890 l 53 924 q 218 417 218 688 q 22 -156 218 113 l 39 -172 q 249 169 171 -24 q 325 558 325 360 z "},"*":{"ha":458,"x_min":7,"x_max":421,"o":"m 421 665 l 365 747 q 263 732 328 732 l 226 732 q 349 808 279 789 l 340 907 l 242 885 l 242 872 q 211 751 242 807 q 175 879 175 821 l 178 890 l 83 913 l 75 808 q 189 738 133 793 q 168 734 182 738 q 147 731 154 731 q 60 747 119 731 l 7 661 l 99 622 q 214 719 131 676 q 149 590 186 628 l 213 508 l 279 578 q 229 708 246 628 q 333 622 297 667 l 421 665 z "},"+":{"ha":671,"x_min":40,"x_max":638,"o":"m 638 375 l 638 468 l 388 468 l 388 726 l 292 726 l 292 468 l 40 468 l 40 375 l 292 375 l 292 117 l 388 117 l 388 375 l 638 375 z "},",":{"ha":250,"x_min":10,"x_max":217,"o":"m 217 107 q 178 143 194 128 q 153 168 163 158 q 131 191 140 182 q 115 207 122 200 l 10 107 q 72 8 72 42 q 10 -81 72 -26 l 35 -108 q 217 107 164 -25 z "},"-":{"ha":397,"x_min":8,"x_max":356,"o":"m 356 436 l 339 436 l 321 390 l 61 390 l 8 242 l 28 242 l 44 278 l 303 278 l 356 436 z "},".":{"ha":250,"x_min":-3,"x_max":213,"o":"m 213 96 q 167 141 193 114 q 107 207 140 168 l -3 101 q 99 -7 40 40 l 213 96 z "},"/":{"ha":458,"x_min":4,"x_max":431,"o":"m 431 911 l 358 911 l 4 -122 l 71 -122 l 431 911 z "},":":{"ha":250,"x_min":-3,"x_max":213,"o":"m 213 514 l 157 569 q 107 628 146 582 l -3 521 q 97 408 40 460 l 213 514 m 213 96 q 167 141 193 114 q 107 207 140 168 l -3 101 q 99 -7 40 40 l 213 96 z "},";":{"ha":250,"x_min":3,"x_max":218,"o":"m 218 514 q 121 628 165 571 l 6 521 q 55 462 29 489 q 108 411 81 435 l 218 514 m 208 108 q 110 207 136 172 l 3 107 q 61 8 61 44 q 3 -81 61 -29 l 28 -108 q 208 108 163 -24 z "},"<":{"ha":1183,"x_min":35,"x_max":1157,"o":"m 388 131 q 364 197 388 169 q 303 225 340 225 q 249 169 249 225 q 306 114 249 114 q 338 122 322 114 q 261 39 335 39 q 142 107 189 39 q 97 242 97 168 q 157 400 97 332 q 307 468 217 468 q 513 353 414 468 q 614 230 571 282 q 685 142 657 178 q 935 26 800 26 q 1093 92 1028 26 q 1157 254 1157 157 q 1129 353 1157 308 q 1044 404 1096 404 q 992 383 1014 404 q 971 331 971 361 q 988 278 971 303 q 1038 335 996 335 q 1094 246 1094 335 q 1085 191 1094 217 q 1060 146 1076 165 q 1020 115 1043 126 q 969 103 997 103 q 799 221 892 103 q 669 383 713 329 q 622 440 625 438 q 372 558 504 558 q 131 463 228 558 q 35 224 35 368 q 85 61 35 129 q 232 -15 140 -15 q 292 -4 264 -15 q 342 26 321 7 q 375 72 363 46 q 388 131 388 99 z "},"=":{"ha":849,"x_min":0,"x_max":818,"o":"m 818 513 l 818 603 l 0 603 l 0 513 l 818 513 m 818 242 l 818 329 l 0 329 l 0 242 l 818 242 z "},">":{"ha":1183,"x_min":26,"x_max":1149,"o":"m 1149 224 q 1051 463 1149 369 q 811 558 956 558 q 561 440 679 558 l 383 221 q 214 103 290 103 q 163 115 186 103 q 124 146 140 126 q 98 191 107 165 q 89 246 89 217 q 146 335 89 335 q 196 278 188 335 q 213 331 213 303 q 191 383 213 361 q 139 404 169 404 q 54 353 88 404 q 26 254 26 308 q 89 92 26 158 q 249 26 154 26 q 497 142 385 26 q 620 291 576 239 q 671 353 664 343 q 876 468 769 468 q 1026 400 967 468 q 1086 242 1086 335 q 1042 107 1086 168 q 922 39 994 39 q 846 122 847 39 q 878 114 860 114 q 935 169 935 114 q 881 225 935 225 q 819 197 843 225 q 796 131 796 169 q 808 72 796 99 q 842 26 821 46 q 891 -4 863 7 q 951 -15 919 -15 q 1099 61 1043 -15 q 1149 224 1149 129 z "},"?":{"ha":397,"x_min":3,"x_max":364,"o":"m 363 714 q 345 794 364 756 q 296 859 326 832 q 226 900 265 886 q 147 908 188 914 l 81 904 l 3 753 q 126 790 94 790 q 202 760 174 790 q 231 683 231 731 q 204 556 231 633 q 178 479 189 508 q 165 436 168 450 q 149 317 144 365 l 153 264 l 182 264 q 256 496 182 390 q 360 679 343 621 q 362 693 361 685 q 363 714 363 701 m 267 96 q 164 207 190 171 l 53 101 q 154 -7 93 40 l 267 96 z "},"@":{"ha":1240,"x_min":11,"x_max":1197,"o":"m 1197 532 q 1089 833 1197 710 q 806 985 981 954 q 742 993 774 990 q 678 996 710 996 q 193 800 390 996 q 11 367 11 618 q 179 -26 11 132 q 614 -185 347 -185 q 1092 -35 881 -185 l 1074 -11 q 628 -149 875 -149 q 183 53 339 -149 q 90 350 90 172 q 229 754 90 586 q 692 964 401 964 q 750 963 725 964 q 792 958 775 961 q 1061 821 960 931 q 1168 540 1168 706 l 1168 532 q 1118 313 1168 414 q 1055 216 1092 257 q 971 147 1018 175 q 883 119 922 119 q 819 197 819 119 q 831 264 819 222 l 946 681 l 847 681 l 813 561 l 807 563 q 657 692 774 692 q 431 579 535 692 q 326 344 326 467 l 324 317 q 368 164 324 229 q 501 90 418 90 l 510 88 q 725 240 639 88 q 868 85 743 85 q 1025 149 943 85 q 1197 532 1197 279 m 775 525 q 715 290 775 415 q 532 119 633 119 q 469 146 497 119 q 426 254 426 183 q 431 292 426 271 q 510 529 451 421 q 656 663 578 654 l 672 663 q 775 525 775 663 z "},"A":{"ha":849,"x_min":0,"x_max":807,"o":"m 807 114 l 786 136 l 742 103 q 700 239 703 140 l 689 710 q 719 824 688 769 q 750 864 731 842 q 797 913 769 886 l 794 915 q 638 815 707 894 q 358 907 504 907 q 118 810 214 907 q 22 593 22 711 l 25 563 q 172 321 36 447 l 49 138 q 0 22 0 64 q 31 -14 0 -14 q 64 15 64 -14 q 57 43 64 25 q 50 69 50 61 q 62 98 50 86 q 89 110 74 110 q 147 90 111 110 l 344 -14 l 547 138 q 649 -17 572 31 l 807 114 m 543 393 l 269 393 l 504 739 l 515 739 l 543 699 l 543 393 m 475 765 l 442 715 q 363 724 406 724 q 253 690 294 724 q 207 588 207 653 q 290 647 239 642 l 313 650 q 374 617 353 650 l 189 346 q 67 564 67 443 q 144 735 67 668 q 324 799 217 799 q 475 765 396 799 m 549 185 l 432 90 l 149 221 l 200 296 l 549 296 l 549 185 z "},"B":{"ha":950,"x_min":0,"x_max":907,"o":"m 907 138 l 907 390 q 724 543 907 524 q 752 572 739 558 q 776 597 765 586 q 876 782 876 699 q 806 911 876 869 q 736 928 778 928 q 622 904 693 928 q 453 800 500 864 q 404 613 404 735 l 404 378 q 222 86 404 199 l 218 90 q 306 238 282 171 q 328 408 328 300 l 328 625 q 371 803 328 739 q 511 922 408 861 q 374 893 407 893 l 367 893 q 244 919 340 893 q 169 931 200 931 q 56 882 104 931 q 0 771 13 839 q 89 829 38 829 l 122 825 q 139 819 125 824 q 176 807 153 815 q 232 794 211 794 q 308 813 260 794 l 311 807 q 175 550 175 699 q 68 521 114 550 q 7 431 19 488 q 97 451 53 451 q 147 443 132 451 q 200 351 206 419 l 199 333 q 83 221 83 306 l 86 194 q 160 239 118 232 q 200 197 200 239 l 200 186 q 147 78 192 131 q 101 27 121 49 q 68 -8 82 6 q 31 -103 31 -65 q 63 -150 31 -139 l 69 -150 q 101 -121 101 -150 q 94 -83 101 -108 q 86 -46 86 -58 l 89 -36 q 168 29 96 7 q 278 46 219 46 q 450 18 360 46 q 490 6 464 14 q 551 -15 515 -3 q 719 78 664 51 q 907 138 800 114 m 754 414 l 753 396 q 682 379 703 379 q 661 383 679 379 q 608 393 643 386 l 608 461 q 686 515 656 500 q 743 476 732 497 q 754 414 757 451 m 743 692 q 608 503 743 578 l 608 646 l 582 646 l 582 146 q 467 160 535 160 q 340 147 415 160 l 339 153 q 489 272 453 215 q 526 456 526 328 l 526 726 q 633 858 526 835 q 743 692 743 796 m 753 264 q 714 268 732 268 l 663 268 q 608 264 635 268 l 608 368 q 648 363 631 365 q 679 361 665 361 q 715 363 697 361 q 753 368 733 365 l 753 264 m 753 144 q 712 124 729 133 q 683 110 694 115 q 608 135 656 118 l 608 240 q 664 248 647 246 q 675 250 681 250 q 753 236 711 250 l 753 144 z "},"C":{"ha":810,"x_min":0,"x_max":786,"o":"m 786 229 l 779 231 q 710 179 735 197 q 682 158 686 161 q 513 104 600 104 q 479 108 501 104 q 446 111 457 111 l 446 769 q 544 735 496 753 q 636 700 592 718 l 756 831 q 483 910 614 831 l 214 682 l 214 351 q 194 246 214 282 q 110 483 110 357 q 278 824 110 685 q 71 656 147 781 q 0 394 0 539 q 57 171 0 272 q 208 31 108 82 q 410 -14 301 -14 q 458 -12 435 -14 q 501 -7 481 -10 q 786 229 682 22 m 413 115 q 213 232 285 146 q 315 342 288 299 q 353 482 353 401 l 353 743 l 413 792 l 413 115 z "},"D":{"ha":1032,"x_min":1,"x_max":988,"o":"m 988 293 q 967 547 988 443 q 675 872 906 849 q 615 876 631 876 l 560 876 q 480 874 528 876 q 368 865 432 871 q 257 857 304 860 q 178 854 210 854 l 171 853 q 87 877 126 853 q 31 942 47 901 l 29 915 q 51 815 26 863 q 120 745 76 767 q 243 724 164 724 q 329 728 272 724 q 417 732 388 732 q 267 599 314 671 q 203 408 213 519 l 163 410 q 57 382 99 413 q 1 290 10 351 q 89 331 42 331 q 132 321 113 331 q 181 219 181 296 q 42 4 181 133 l 47 -1 q 193 103 160 75 q 356 394 356 233 l 356 575 q 388 679 356 640 q 482 739 414 710 q 443 606 443 671 l 446 590 l 446 363 q 300 114 446 218 q 150 17 214 57 q 42 -50 86 -24 l 49 -64 q 447 49 250 49 q 760 -10 593 49 q 874 77 818 40 q 982 138 929 114 q 983 170 982 151 q 985 215 983 189 q 987 260 986 242 q 988 293 988 279 m 818 521 q 692 464 764 464 q 569 521 619 464 l 569 738 q 746 688 688 738 q 818 521 804 638 m 831 304 q 713 338 778 338 q 569 303 647 338 l 569 479 q 692 442 629 442 q 821 481 764 442 q 828 406 826 444 q 831 326 831 367 l 831 304 m 540 188 l 415 189 q 472 367 472 254 l 472 594 q 507 739 472 686 l 540 738 l 540 188 m 832 264 l 829 138 q 698 167 763 156 q 568 185 633 178 l 568 264 q 701 318 626 318 q 832 264 778 318 z "},"E":{"ha":806,"x_min":0,"x_max":786,"o":"m 786 229 l 779 231 q 497 106 621 106 l 446 111 l 447 490 l 665 490 l 733 633 l 586 633 l 776 839 l 760 838 q 608 854 700 832 q 479 910 536 871 l 214 682 l 214 351 q 194 246 214 282 q 108 482 108 357 q 155 669 108 578 q 278 824 201 761 q 71 656 147 781 q 0 394 0 539 q 57 171 0 272 q 208 31 108 82 q 410 -14 301 -14 q 458 -12 435 -14 q 501 -7 481 -10 q 786 229 682 22 m 607 700 l 446 525 l 446 765 l 607 700 m 413 115 q 214 232 286 149 q 314 340 285 292 q 353 482 353 401 l 353 743 l 413 792 l 413 115 z "},"F":{"ha":856,"x_min":-135,"x_max":967,"o":"m 768 732 q 900 781 844 732 q 967 904 950 824 q 821 874 896 874 q 656 914 743 874 q 554 840 596 869 q 489 800 513 811 q 290 761 410 761 l 290 631 q 113 589 183 631 q 26 439 26 536 l 33 439 q 192 507 93 511 l 290 503 l 290 104 q 249 -62 290 -17 q 215 -83 229 -83 l 207 -83 q 175 -67 200 -81 q 107 -28 150 -53 q 4 6 46 6 q -58 -10 -24 6 q -135 -189 -135 -57 l -129 -189 q -61 -119 -108 -119 q -33 -127 -57 -121 q 35 -147 -10 -133 q 108 -158 75 -158 q 164 -153 147 -158 l 349 -97 q 567 31 508 -49 q 631 275 628 111 l 632 503 l 788 503 l 828 631 l 632 631 l 632 765 q 768 732 700 732 m 504 247 q 492 131 504 182 q 454 42 481 81 q 385 -26 428 3 q 283 -75 343 -54 l 281 -69 q 397 89 365 -1 q 421 285 421 160 l 421 733 q 452 738 442 736 q 464 740 463 740 q 504 754 486 746 l 504 247 z "},"G":{"ha":910,"x_min":-4,"x_max":865,"o":"m 865 394 l 865 401 q 617 675 865 597 l 821 835 l 819 839 l 738 833 q 482 906 625 825 l 253 746 q 78 563 150 675 q 3 325 -4 435 l 6 282 q 68 119 11 199 q 363 -14 165 -14 q 699 94 549 -14 q 865 394 865 215 m 601 699 l 368 513 l 368 789 l 601 699 m 746 378 q 603 332 663 332 q 460 374 544 332 l 460 514 q 560 531 507 531 q 685 490 635 531 q 746 378 735 450 m 756 325 q 732 215 756 271 q 601 244 675 244 q 461 219 536 244 l 461 340 q 599 308 550 308 q 753 349 661 308 l 756 325 m 722 190 q 460 44 626 44 l 460 190 q 601 219 549 219 q 722 190 660 219 m 229 250 q 207 204 229 218 q 136 428 136 296 q 226 668 136 581 l 229 250 m 429 46 q 221 172 314 67 q 283 226 257 203 q 329 265 310 249 q 367 390 367 299 l 367 472 q 429 500 403 493 l 429 46 z "},"H":{"ha":971,"x_min":0,"x_max":928,"o":"m 928 393 l 928 432 q 890 611 928 540 q 842 677 872 643 q 767 747 811 711 l 536 563 l 536 714 q 586 840 536 783 q 697 925 622 881 q 488 833 557 899 q 407 622 407 758 l 407 378 q 360 207 407 275 q 228 86 322 151 l 224 90 q 308 239 286 169 q 329 408 329 301 l 329 625 q 374 806 329 740 q 515 922 411 860 l 457 907 q 420 898 436 901 q 393 893 404 894 l 379 892 q 304 906 350 892 q 171 931 214 931 q 59 884 104 931 q 0 771 14 838 q 22 790 14 783 q 32 800 29 797 q 92 829 67 829 l 124 825 q 140 819 126 824 q 181 807 154 815 q 236 794 215 794 q 313 811 267 794 q 213 697 232 731 q 178 550 178 640 q 72 519 117 550 q 11 431 22 488 q 100 451 54 451 q 114 451 107 451 q 128 450 121 451 q 185 416 164 446 q 204 350 207 386 l 203 333 q 88 221 88 306 l 90 196 q 169 235 125 235 q 207 197 207 235 l 204 175 q 122 49 189 122 q 68 -17 85 7 q 35 -106 35 -67 q 69 -150 35 -150 l 76 -150 q 106 -118 106 -150 q 103 -102 106 -112 q 97 -81 100 -92 q 92 -60 94 -69 q 89 -44 89 -50 q 97 -19 89 -36 q 281 46 131 46 q 554 -21 443 46 l 681 171 l 665 188 q 536 136 622 136 q 490 139 526 136 q 389 147 453 142 l 357 150 q 653 299 518 299 q 774 275 710 299 q 721 118 760 189 q 693 76 715 108 q 631 -15 671 43 q 589 -110 589 -76 q 606 -154 589 -132 q 660 -182 629 -182 q 699 -169 679 -182 q 718 -137 718 -156 q 679 -114 718 -114 l 672 -117 q 633 -90 633 -117 l 635 -86 q 706 0 639 -51 q 756 36 733 19 q 794 64 778 53 q 903 213 872 121 q 928 393 928 285 m 774 489 q 742 479 754 482 q 728 475 731 476 q 664 467 694 467 q 617 472 649 467 q 538 489 585 478 l 538 526 l 672 640 q 774 489 750 600 m 772 304 q 651 325 710 325 q 538 308 597 325 l 538 460 q 657 446 594 446 q 772 461 724 446 l 772 304 z "},"I":{"ha":683,"x_min":0,"x_max":650,"o":"m 650 901 l 650 911 q 446 629 446 911 q 456 499 446 583 q 485 293 465 415 q 486 265 485 282 q 490 225 488 249 q 494 185 493 201 q 496 157 496 168 q 481 76 496 107 q 429 39 467 46 l 414 36 q 254 138 342 36 q 401 293 401 138 q 376 501 401 315 q 369 571 371 538 q 367 636 367 604 q 482 908 367 814 l 481 913 q 369 893 400 893 q 283 906 358 893 q 250 910 267 908 q 215 911 233 911 l 206 911 q 101 869 143 911 q 44 765 58 828 l 53 764 q 131 828 83 828 l 139 828 q 200 819 160 828 q 236 815 221 817 q 261 813 251 813 q 369 843 304 813 q 281 711 303 765 q 247 554 257 654 q 137 524 185 554 q 74 436 89 494 q 181 461 142 461 q 247 439 225 461 q 293 282 293 397 q 283 199 293 236 q 193 158 265 157 l 163 160 l 132 158 q 35 99 69 149 q 0 -15 0 49 l 3 -17 q 108 53 43 53 q 263 10 143 53 q 382 -14 336 -14 l 397 -14 q 576 108 514 -14 q 615 300 615 185 q 607 405 615 332 q 581 596 599 478 q 570 695 574 654 q 565 760 567 736 l 564 783 q 582 861 561 833 q 650 901 600 885 z "},"J":{"ha":717,"x_min":-51,"x_max":750,"o":"m 750 888 l 747 906 q 558 861 626 861 q 471 872 531 861 q 438 879 453 875 q 410 886 424 883 q 320 903 363 897 q 242 908 278 908 q 38 790 89 908 q 22 729 22 753 q 46 665 22 694 q 104 636 69 636 q 158 694 158 636 q 118 738 154 738 q 90 733 108 738 q 61 729 71 729 q 47 744 47 729 q 58 786 47 757 q 122 810 75 810 q 210 794 161 810 q 263 777 246 783 q 281 771 281 771 q 371 756 335 756 q 539 801 424 756 l 542 796 q 422 710 446 732 q 313 507 326 629 q 224 525 267 525 q 121 481 161 525 q 251 437 201 481 q 300 314 300 393 q 197 336 247 336 q 108 303 146 336 q 319 183 254 276 q 354 50 354 135 q 313 -28 354 -11 l 281 -32 q 196 -21 256 -32 q 147 -12 168 -15 q 111 -10 126 -10 q -51 -179 -19 -10 l -46 -181 q 35 -111 -8 -111 l 58 -115 q 232 -158 186 -158 q 454 -49 331 -158 q 599 147 561 44 q 629 365 632 235 l 625 597 q 631 684 625 644 q 652 758 638 724 q 691 824 667 793 q 750 888 715 856 m 651 838 q 535 678 569 757 q 503 483 503 599 l 503 228 q 464 17 503 85 q 286 -93 413 -71 l 285 -87 q 407 28 375 -49 q 428 189 428 79 l 428 521 q 651 838 428 721 z "},"K":{"ha":971,"x_min":3,"x_max":938,"o":"m 938 136 l 918 154 l 879 118 l 767 299 q 606 451 707 396 q 719 544 664 500 q 833 629 775 589 l 690 789 q 465 601 588 686 q 546 915 465 767 l 522 915 q 439 618 439 775 l 439 367 q 358 172 439 236 q 309 144 356 169 q 174 71 263 119 l 158 82 q 255 165 219 133 q 301 208 290 197 q 371 375 371 286 l 371 653 q 444 904 371 768 l 444 914 q 335 888 371 888 q 309 890 326 888 q 264 899 292 893 q 176 911 210 911 q 3 728 29 911 l 7 726 q 135 801 54 801 l 236 794 q 392 860 283 792 l 394 854 q 274 733 308 789 q 231 569 231 665 q 150 588 193 588 q 46 506 78 588 q 117 519 93 519 l 142 517 q 222 453 196 511 q 243 346 243 407 q 154 368 203 368 q 76 296 90 368 q 131 311 110 311 q 188 264 174 311 l 192 226 q 138 103 192 163 q 81 44 106 69 q 42 4 57 19 l 58 -17 q 135 6 101 -3 q 193 22 168 15 q 306 38 261 38 q 538 -17 401 38 l 685 151 q 716 98 703 119 q 739 63 729 76 q 769 21 754 40 q 799 -15 783 1 l 938 136 m 685 551 q 582 469 628 508 l 483 386 l 465 388 l 465 568 l 590 660 l 685 551 m 669 181 l 608 111 q 390 154 513 154 l 372 157 q 465 346 451 229 l 469 347 q 590 294 538 347 q 626 250 606 279 q 669 181 646 221 z "},"L":{"ha":850,"x_min":-10,"x_max":814,"o":"m 814 113 l 793 132 q 746 101 758 101 q 718 114 736 101 q 690 132 703 125 q 668 144 678 139 q 538 175 613 175 q 335 136 460 175 l 332 142 q 496 315 451 228 q 543 551 543 404 l 543 617 q 542 644 543 628 q 538 683 540 661 q 533 724 535 707 q 532 751 532 740 q 661 897 532 878 l 658 907 q 478 856 535 907 q 417 679 417 799 l 418 667 q 422 551 418 628 q 426 484 425 513 q 428 436 428 456 q 379 235 428 321 q 235 82 336 163 l 231 86 q 286 178 264 138 q 319 246 308 218 q 349 424 349 322 q 347 468 349 439 q 346 513 346 497 q 344 545 346 526 q 340 590 343 564 q 336 635 338 617 q 335 667 335 654 q 449 899 335 801 l 444 906 q 409 891 422 896 q 393 885 396 886 q 336 876 364 876 q 256 893 314 876 q 163 911 201 911 l 151 911 q -10 765 21 911 l 0 757 q 82 817 39 817 q 106 814 92 817 q 143 806 121 811 q 210 794 190 794 q 333 832 272 794 q 250 710 276 767 q 224 579 221 646 l 226 513 q 201 518 211 518 l 178 518 q 85 461 110 518 l 118 463 q 203 435 171 465 q 236 354 236 406 l 235 346 q 182 353 204 353 q 119 328 149 353 q 236 213 236 313 l 236 200 q 86 0 221 106 l 94 -14 q 390 64 261 64 q 661 -33 543 64 l 814 113 z "},"M":{"ha":1203,"x_min":-54,"x_max":1158,"o":"m 1158 107 l 1140 125 q 1110 106 1124 106 q 1076 181 1076 106 l 1076 721 q 1093 785 1076 753 q 1108 808 1099 794 q 1131 840 1117 821 l 1115 851 l 1061 811 l 917 910 l 688 763 q 578 914 669 854 l 329 779 q 163 465 163 689 q 60 430 96 457 q 11 340 25 403 q 85 357 61 357 q 132 347 111 357 q 177 322 157 339 q 212 283 197 306 q 234 234 226 261 q 242 181 242 207 q 226 114 242 149 q 58 43 204 75 q -54 -115 -54 19 l -46 -115 q 54 -54 -12 -54 q 69 -55 61 -54 q 86 -57 76 -56 q 168 -68 139 -64 q 200 -72 197 -72 q 296 -43 250 -72 q 388 150 388 13 l 388 410 l 540 410 l 542 182 q 531 150 542 165 q 522 141 528 147 q 507 128 517 135 l 507 117 q 572 61 538 93 q 647 -14 607 29 l 856 171 l 836 193 l 804 169 l 804 410 l 876 511 l 806 511 l 806 803 l 833 817 l 933 743 l 935 157 q 1036 -14 935 25 l 1158 107 m 776 511 l 688 511 l 686 719 l 776 781 l 776 511 m 542 751 l 540 511 l 442 511 l 386 429 l 386 667 q 454 813 386 749 q 542 751 542 813 m 776 146 l 732 106 q 686 176 686 124 l 688 410 l 776 410 l 776 146 m 385 769 q 361 675 361 719 l 361 158 q 274 50 361 50 q 217 63 254 50 q 301 231 301 110 l 301 603 q 318 700 301 664 q 381 774 335 736 l 385 769 z "},"N":{"ha":1010,"x_min":-75,"x_max":976,"o":"m 976 146 l 953 161 l 929 129 q 858 140 888 136 q 808 143 828 143 q 699 125 751 143 q 917 586 917 394 q 614 911 917 815 l 275 706 l 275 592 q 178 611 206 611 q 85 574 124 611 q 275 419 242 574 q 171 446 221 446 q 85 400 115 446 l 117 403 q 276 275 235 413 q 213 282 246 282 q 115 233 153 282 l 149 233 q 264 204 211 233 q 324 108 324 169 q 298 49 324 71 q 233 28 272 28 l 210 25 q 189 26 200 25 q 167 28 178 26 q 120 33 138 31 q 97 35 103 35 l 75 35 q -12 -1 32 35 q -75 -71 -40 -24 l -74 -75 q 13 -53 -28 -53 q 97 -68 43 -53 q 219 -96 193 -96 l 236 -96 q 419 -8 346 -96 q 489 186 489 74 l 489 338 q 619 385 565 385 q 736 338 681 385 q 690 233 713 285 q 644 131 668 182 q 575 -83 593 6 l 583 -92 q 753 3 646 3 q 883 -15 811 3 l 976 146 m 763 593 q 633 531 701 531 q 489 589 565 531 l 489 772 q 653 721 583 764 q 763 593 733 674 m 776 504 q 749 368 776 456 q 624 407 689 407 q 490 368 556 407 l 490 554 q 633 507 563 507 q 769 561 704 507 q 774 525 772 539 q 776 504 776 511 m 460 213 l 458 201 q 317 10 458 10 l 306 13 l 304 18 q 388 114 364 51 q 404 243 404 161 l 404 742 l 460 769 l 460 213 z "},"O":{"ha":940,"x_min":-4,"x_max":907,"o":"m 907 525 q 892 621 907 571 q 729 826 851 750 q 476 913 622 896 q 360 830 414 868 q 260 760 307 792 q 148 687 203 722 q 38 619 93 651 q -4 367 -4 492 q 25 196 -4 275 q 142 43 61 101 q 324 -14 224 -14 q 696 153 504 -14 q 907 525 907 339 m 719 618 q 588 550 660 550 q 440 615 517 550 l 440 774 q 719 618 644 736 m 774 463 q 751 361 774 422 q 597 429 675 429 q 442 376 524 429 l 442 575 q 582 531 511 531 q 736 593 663 531 q 774 463 774 532 m 739 324 q 440 103 624 103 l 440 338 q 593 407 521 407 q 739 324 674 407 m 407 103 q 214 200 311 103 q 326 332 311 303 q 351 432 351 375 l 351 778 l 407 778 l 407 103 m 231 351 q 194 224 231 281 q 110 440 110 322 q 231 711 110 588 l 231 351 z "},"P":{"ha":940,"x_min":4,"x_max":885,"o":"m 885 151 l 885 539 q 836 743 885 675 q 644 910 779 819 l 496 808 l 496 911 l 464 911 l 464 786 l 396 746 q 347 865 389 821 q 232 908 304 908 q 56 839 142 908 l 56 821 q 146 836 106 836 q 203 825 174 836 q 257 706 258 799 l 256 636 l 29 479 q 179 361 126 424 q 253 188 239 289 q 4 15 88 136 l 13 4 q 256 58 150 58 l 257 -189 l 375 -185 l 494 -189 l 496 43 q 683 -14 585 26 l 885 151 m 733 564 q 613 515 685 515 q 494 567 538 515 l 494 774 l 517 790 q 669 722 607 790 q 733 564 733 657 m 732 350 q 606 379 667 379 q 496 350 547 379 l 496 525 q 610 493 549 493 q 732 525 671 493 l 732 350 m 733 314 l 732 126 q 672 151 701 140 q 613 169 642 161 q 573 180 603 172 q 494 199 543 188 l 494 322 q 608 357 547 357 q 733 314 676 357 m 254 446 l 146 535 l 254 604 l 254 446 m 464 -151 l 403 -151 l 403 718 l 464 754 l 464 -151 z "},"Q":{"ha":997,"x_min":1,"x_max":961,"o":"m 961 63 l 942 83 q 911 67 921 67 q 885 82 904 67 l 754 192 q 871 344 826 265 q 922 525 928 449 l 918 582 q 761 815 889 725 q 492 913 649 894 q 376 830 429 868 q 275 760 322 792 q 163 687 218 722 q 53 619 108 651 q 33 559 42 588 q 18 503 25 531 q 5 430 8 461 q 3 378 1 399 l 6 344 q 79 125 15 211 q 269 -4 151 24 q 327 -12 308 -10 q 344 -14 346 -14 q 643 96 479 -14 l 828 -58 l 961 63 m 735 618 q 603 550 675 550 q 453 615 535 550 l 453 774 q 735 618 663 736 m 789 463 q 767 361 789 422 q 610 429 690 429 q 454 376 536 429 l 454 575 q 597 531 528 531 q 751 593 678 531 q 789 463 789 532 m 754 324 q 453 103 638 103 l 453 338 q 608 407 535 407 q 754 324 689 407 m 422 103 q 226 200 328 103 q 278 253 260 235 q 301 278 297 272 q 367 432 367 356 l 367 778 l 422 778 l 422 103 m 246 351 q 207 224 246 279 q 125 440 125 322 q 246 711 125 590 l 246 351 z "},"R":{"ha":997,"x_min":0,"x_max":963,"o":"m 963 107 l 946 124 l 915 100 q 843 224 871 143 q 785 369 806 333 q 628 518 733 454 l 822 657 l 751 754 q 684 846 714 806 q 632 914 654 886 l 385 750 q 336 865 378 821 q 224 908 294 908 q 46 839 128 908 l 46 821 q 135 836 104 836 q 249 707 250 836 l 247 647 l 22 479 q 251 188 251 367 q 0 11 97 140 l 1 4 q 271 64 160 64 q 298 63 285 64 q 322 61 311 63 q 440 22 382 54 q 471 4 451 15 q 518 -24 490 -7 l 660 119 l 642 138 l 613 111 q 485 169 553 146 l 485 410 q 638 325 582 410 q 718 146 657 296 q 822 -15 765 29 l 836 -15 l 963 107 m 685 593 l 485 446 l 485 783 l 528 813 l 685 593 m 456 179 q 393 188 426 188 l 393 719 l 456 761 l 456 179 m 246 457 l 142 540 l 246 610 l 246 457 z "},"S":{"ha":997,"x_min":-3,"x_max":965,"o":"m 965 367 l 965 374 q 849 569 965 500 q 613 625 771 614 l 567 628 l 699 864 l 674 882 l 643 828 q 378 919 510 865 l 249 804 q 178 715 207 767 q 149 611 149 664 q 38 478 38 558 q 47 433 38 458 q 171 318 78 354 q 332 293 256 288 l 349 294 l 317 226 q 263 231 290 229 q 204 233 235 233 q -3 89 -3 233 q 7 45 -3 65 q 33 10 17 25 q 72 -13 50 -4 q 119 -24 94 -22 l 161 -26 q 308 0 218 -31 q 359 19 325 6 q 444 56 393 33 l 617 -15 q 772 74 715 35 q 965 367 965 204 m 576 708 l 529 624 l 454 613 q 415 608 435 610 q 378 606 396 606 q 238 697 238 606 l 236 701 q 274 769 236 744 q 351 793 308 793 l 374 793 q 576 708 472 783 m 871 317 q 742 94 871 207 l 618 142 q 687 181 658 164 q 732 211 715 197 q 793 310 793 260 q 783 357 793 336 q 617 432 751 432 q 553 429 592 432 q 461 421 514 426 l 500 501 q 565 509 535 507 q 622 511 594 511 q 868 363 843 511 q 870 347 869 354 q 871 333 871 340 l 871 317 m 456 494 l 414 418 q 355 410 381 413 q 310 407 329 407 q 226 418 264 407 q 157 454 188 429 q 121 517 121 486 q 158 585 121 549 q 356 489 200 489 q 399 490 374 489 q 456 494 424 492 m 674 267 q 633 204 674 242 l 578 158 q 350 221 419 208 l 388 296 q 575 313 560 313 q 653 303 629 313 q 674 267 674 290 m 399 68 q 147 -4 260 -4 q 47 44 71 -4 l 40 67 q 76 118 40 99 q 142 133 107 133 q 399 68 244 133 z "},"T":{"ha":910,"x_min":6,"x_max":865,"o":"m 865 914 l 857 915 q 722 842 813 842 q 614 860 676 842 q 510 889 549 878 q 340 907 438 907 q 6 651 47 907 l 11 651 q 111 753 65 726 q 228 779 164 782 l 313 775 q 229 706 265 739 q 169 643 193 674 q 81 471 106 567 q 65 365 65 413 q 133 153 65 247 q 486 -14 251 -14 q 600 0 546 -14 q 860 292 792 49 l 853 296 q 615 111 761 157 l 615 722 l 632 721 q 794 763 725 713 q 865 914 865 814 m 585 106 l 567 101 q 343 171 436 101 q 456 297 428 249 q 494 458 494 363 l 494 742 l 585 724 l 585 106 m 358 306 q 313 192 358 235 q 199 449 199 301 q 338 771 199 624 l 358 765 l 358 306 z "},"U":{"ha":1028,"x_min":-7,"x_max":996,"o":"m 996 107 l 982 126 l 936 88 q 911 182 911 118 l 911 736 q 968 875 911 806 l 957 882 l 890 826 l 764 910 l 626 749 l 644 733 l 690 786 l 753 743 l 753 576 q 651 546 701 546 q 544 576 601 546 l 544 911 l 513 911 q 406 876 469 876 q 296 893 368 876 q 185 911 225 911 q 35 833 88 911 q -7 663 -7 767 l 4 667 q 165 801 56 790 l 197 801 q 217 801 206 801 q 243 799 229 800 q 269 798 257 799 q 289 797 281 797 q 335 802 307 797 q 404 817 364 807 l 406 811 q 294 747 343 779 q 210 679 246 714 q 83 482 124 597 q 57 343 57 408 q 138 110 57 215 q 410 -14 233 -14 q 454 -12 432 -14 q 499 -4 476 -10 q 751 156 621 21 q 844 -15 772 50 l 872 -15 l 996 107 m 751 399 q 649 422 697 422 q 546 399 597 422 l 546 546 q 649 521 601 521 q 751 546 694 521 l 751 399 m 753 196 q 546 118 651 128 l 544 371 q 651 400 604 400 q 753 371 694 400 l 753 196 m 514 115 q 300 182 383 115 q 457 447 457 282 l 457 732 q 514 867 457 810 l 514 115 m 447 811 q 333 574 333 697 l 335 344 q 281 199 335 253 q 201 425 201 299 q 206 471 201 433 q 206 483 206 476 q 208 497 207 489 q 447 811 239 693 z "},"V":{"ha":819,"x_min":-10,"x_max":790,"o":"m 790 601 q 696 921 790 768 l 338 735 q 142 915 279 915 q -10 754 11 915 q 68 804 29 804 q 104 797 83 804 q 210 644 175 771 q 235 446 235 554 q 142 476 188 476 q 56 389 64 476 l 76 389 q 167 364 126 389 q 218 293 207 339 l 222 247 q 157 10 222 189 l 176 -3 q 297 29 247 29 q 446 -15 354 29 q 571 125 525 72 q 631 196 617 178 q 765 440 731 326 q 790 601 790 521 m 640 576 q 490 544 544 544 q 368 565 451 544 q 347 703 368 578 l 564 819 q 614 708 594 768 q 640 576 633 647 m 640 546 q 608 342 640 438 q 443 372 542 372 q 346 364 392 372 q 368 540 368 451 q 497 521 446 521 q 640 546 563 521 m 600 317 q 546 202 569 250 q 504 122 522 154 q 413 139 456 139 q 224 60 342 139 l 211 65 q 256 150 239 118 q 279 194 272 182 q 333 331 315 269 q 454 350 400 350 q 600 317 525 350 z "},"W":{"ha":1508,"x_min":0,"x_max":1478,"o":"m 1478 107 l 1461 131 l 1413 92 q 1382 181 1382 122 l 1382 722 q 1447 863 1382 789 l 1436 868 l 1350 815 l 1247 911 l 1115 772 l 1138 751 l 1178 792 l 1225 743 l 1225 565 q 1138 549 1168 549 q 1058 565 1108 549 l 1058 911 l 1029 911 q 949 861 1006 861 q 872 878 922 861 q 757 911 772 911 l 744 911 q 624 847 671 911 q 574 715 586 794 l 589 710 q 665 788 613 767 q 775 801 699 801 l 833 801 q 872 803 853 801 q 911 808 892 806 l 913 803 q 697 611 781 725 q 604 343 604 483 q 633 193 604 274 q 542 114 589 144 l 542 911 l 508 911 q 400 854 456 854 q 331 868 371 854 q 244 897 274 888 q 208 907 214 906 l 169 908 q 39 833 86 910 q 0 681 0 769 l 18 675 q 68 760 44 735 q 158 794 103 794 l 193 794 l 269 790 q 365 813 297 789 l 368 807 q 79 469 135 679 q 60 331 60 396 q 132 101 60 199 q 233 17 169 47 q 363 -14 296 -14 q 435 -4 396 -14 q 646 168 538 18 q 906 -15 731 -15 q 1228 156 1050 -15 q 1262 53 1236 92 q 1343 -15 1288 14 l 1478 107 m 1225 392 q 1142 403 1189 403 q 1060 392 1096 403 l 1060 535 q 1135 521 1096 521 q 1225 535 1168 521 l 1225 392 m 1029 106 q 817 178 903 106 q 937 286 901 225 q 972 444 972 347 l 972 732 q 1029 854 972 810 l 1029 106 m 1225 192 q 1060 114 1146 138 l 1058 364 q 1142 378 1104 378 q 1225 364 1179 378 l 1225 192 m 949 797 q 849 560 849 678 l 849 343 q 797 199 849 254 q 726 414 726 300 q 786 635 726 529 q 944 801 846 740 l 949 797 m 510 106 l 486 101 q 281 178 365 101 q 401 286 368 229 q 436 444 436 343 l 436 721 q 452 797 436 769 q 510 854 468 825 l 510 106 m 413 797 q 307 560 307 674 l 307 343 q 261 199 307 244 q 175 421 175 293 q 239 644 175 539 q 408 801 304 751 l 413 797 z "},"X":{"ha":806,"x_min":6,"x_max":778,"o":"m 778 810 q 716 841 739 829 q 686 857 693 853 q 603 911 644 879 l 449 567 l 333 790 q 278 876 297 860 q 185 911 242 911 q 6 779 76 911 l 11 774 q 108 810 63 810 q 211 733 174 810 l 314 525 l 165 525 l 119 426 l 356 426 l 357 400 l 246 156 l 82 217 l 26 89 q 207 -14 110 57 l 385 383 l 504 128 q 554 42 531 72 q 632 -15 588 0 l 758 108 l 739 135 l 697 94 q 640 156 654 128 l 511 426 l 669 426 l 713 524 l 469 524 l 468 544 l 567 756 l 724 692 l 778 810 z "},"Y":{"ha":879,"x_min":3,"x_max":853,"o":"m 853 539 q 851 590 853 563 q 843 649 849 617 q 765 810 829 744 q 603 878 699 878 q 353 775 497 878 q 287 871 335 835 q 176 907 239 907 q 65 878 125 907 l 65 871 l 72 871 q 179 834 149 871 q 207 718 210 797 l 204 621 q 113 635 168 635 q 61 625 82 635 q 169 551 140 589 q 207 428 207 506 l 204 413 q 88 438 154 438 l 57 438 l 57 432 q 129 386 97 414 q 185 322 161 358 q 207 221 208 281 l 206 175 q 65 131 122 175 q 3 0 3 82 q 60 -135 3 -78 q 196 -192 117 -192 q 304 -167 251 -192 q 430 -104 376 -131 q 519 -58 483 -78 q 547 -50 536 -50 q 565 -60 564 -50 q 571 -72 569 -64 q 556 -111 571 -83 l 550 -135 q 583 -185 550 -175 l 606 -189 q 654 -126 654 -189 q 631 -62 654 -90 q 514 -14 586 -14 q 356 -53 463 -14 q 278 -83 317 -68 q 200 -112 239 -97 l 161 -114 q 66 -83 103 -115 q 29 3 29 -51 q 100 115 29 79 q 239 144 156 144 l 475 144 q 756 250 658 144 q 853 539 853 356 m 683 621 q 558 568 611 568 q 440 615 501 568 l 440 789 q 524 808 492 808 q 683 621 651 808 m 694 497 q 686 396 694 467 q 553 438 617 438 q 442 404 493 438 l 442 579 q 553 546 496 546 q 688 594 618 546 q 691 546 688 578 q 694 497 694 514 m 679 368 q 589 206 651 260 q 460 169 546 169 l 440 169 l 440 375 q 556 415 497 415 q 679 368 618 415 m 410 169 l 347 169 l 347 743 l 410 772 l 410 169 z "},"Z":{"ha":789,"x_min":11,"x_max":747,"o":"m 747 150 l 726 165 l 682 115 q 474 164 581 164 q 294 133 390 164 q 214 105 258 122 q 117 64 169 88 l 114 69 q 303 244 222 163 q 438 396 385 325 l 619 396 l 639 439 l 468 439 l 508 504 l 669 504 l 690 549 l 538 549 q 634 738 586 653 q 729 892 682 824 l 724 899 q 469 849 567 849 q 206 910 356 849 l 140 829 q 107 790 124 808 q 74 753 90 771 l 93 735 l 136 779 q 319 744 226 744 q 651 846 471 744 q 357 547 460 675 l 176 547 l 158 503 l 325 503 l 283 438 l 125 438 l 106 394 l 260 394 q 156 218 193 281 q 113 143 119 156 q 60 67 86 103 q 11 3 35 32 l 19 -4 q 315 60 193 60 l 331 60 q 611 -14 440 60 q 672 61 650 35 q 699 93 693 88 l 747 150 z "},"[":{"ha":311,"x_min":3,"x_max":275,"o":"m 275 -161 l 275 -137 l 140 -136 l 140 1054 l 275 1056 l 275 1082 l 3 1082 l 3 -161 l 275 -161 z "},"\\":{"ha":371,"x_min":0,"x_max":354,"o":"m 354 842 l 222 874 q 68 771 143 804 l 68 629 l 11 629 l 0 558 l 68 558 l 68 201 q 32 97 68 133 q 217 -7 110 75 q 278 49 247 21 q 339 104 308 76 l 322 122 l 290 97 l 200 146 l 200 771 l 326 746 l 354 842 z "},"]":{"ha":311,"x_min":0,"x_max":271,"o":"m 271 -161 l 271 1081 l 0 1081 l 0 1057 l 133 1056 l 133 -135 l 0 -136 l 0 -161 l 271 -161 z "},"^":{"ha":879,"x_min":10,"x_max":836,"o":"m 836 619 l 490 1004 l 356 1004 l 10 619 l 68 619 l 421 908 l 774 619 l 836 619 z "},"_":{"ha":728,"x_min":0,"x_max":696,"o":"m 696 -324 l 696 -229 l 0 -229 l 0 -324 l 696 -324 z "},"`":{"ha":453,"x_min":39,"x_max":339,"o":"m 339 750 q 131 954 211 851 l 39 924 q 288 729 126 815 l 339 750 z "},"a":{"ha":550,"x_min":4,"x_max":507,"o":"m 507 96 l 492 108 l 467 96 q 428 139 438 104 l 428 503 q 475 610 442 558 l 472 615 l 433 585 l 236 650 q 93 596 171 589 l 75 597 l 142 424 q 4 172 4 300 q 103 -6 4 86 l 110 -6 l 299 146 q 388 -4 299 43 l 507 96 m 299 357 l 156 426 l 97 585 l 299 510 l 299 357 m 300 182 l 196 93 q 115 268 115 174 q 156 404 115 332 l 300 332 l 300 182 z "},"b":{"ha":550,"x_min":11,"x_max":501,"o":"m 501 96 l 501 483 q 410 646 501 585 l 213 503 l 213 749 q 275 875 213 821 q 142 806 203 875 l 121 804 q 35 850 86 831 l 31 846 q 85 718 88 788 l 82 629 l 11 629 l 11 558 l 82 558 l 82 217 q 43 114 82 154 q 301 -3 160 90 q 501 96 411 74 m 375 104 l 213 176 l 213 464 l 322 546 q 375 481 369 514 l 375 104 z "},"c":{"ha":421,"x_min":8,"x_max":368,"o":"m 368 121 l 354 136 l 294 92 l 172 153 l 172 547 l 297 476 l 357 561 l 217 649 q 135 586 178 614 q 46 539 93 558 l 46 185 q 8 86 46 119 q 200 -3 100 67 q 283 58 242 28 q 368 121 325 89 z "},"d":{"ha":550,"x_min":17,"x_max":494,"o":"m 483 556 q 494 615 483 585 q 439 569 457 600 l 17 839 l 17 707 l 193 593 q 123 560 154 574 q 67 540 92 547 l 67 208 q 28 101 67 136 q 278 -8 167 72 q 483 99 361 58 l 483 556 m 351 101 l 196 157 l 196 536 l 242 564 l 351 490 l 351 101 z "},"e":{"ha":453,"x_min":6,"x_max":411,"o":"m 411 469 l 232 649 q 140 589 186 617 q 44 539 93 561 l 44 168 q 6 67 44 107 q 197 -3 104 49 l 318 82 q 358 110 339 97 q 394 133 376 122 l 379 150 l 288 92 l 171 143 l 171 288 q 411 469 258 363 m 301 424 l 169 319 l 169 558 l 301 424 z "},"f":{"ha":421,"x_min":4,"x_max":378,"o":"m 378 119 l 363 136 l 315 97 l 215 161 l 215 558 l 310 558 l 319 629 l 215 629 l 215 771 l 335 746 l 363 842 l 229 874 q 78 771 150 803 l 78 629 l 17 629 l 4 558 l 75 558 l 75 201 q 40 101 75 136 q 240 -4 165 53 l 378 119 z "},"g":{"ha":597,"x_min":7,"x_max":557,"o":"m 557 485 l 557 617 l 453 551 l 240 649 q 170 614 196 626 q 138 599 144 601 q 80 575 107 585 q 28 560 53 565 l 28 104 l 157 13 l 7 -158 l 36 -183 q 200 -154 124 -154 q 376 -183 269 -154 q 433 -156 414 -165 q 451 -147 451 -147 q 547 -56 540 -104 l 547 -50 q 497 46 547 -28 q 449 168 449 122 l 449 501 l 557 485 m 325 189 l 239 101 l 150 161 l 150 556 l 325 506 l 325 189 m 464 -83 l 461 -100 q 240 -62 342 -62 q 122 -71 164 -62 l 321 149 q 371 17 329 78 q 464 -83 397 -21 z "},"h":{"ha":560,"x_min":11,"x_max":501,"o":"m 501 144 l 501 483 q 410 646 501 585 l 215 503 l 215 749 q 275 875 215 824 q 142 806 203 875 l 121 804 q 35 850 86 831 l 32 847 q 82 708 82 801 l 82 626 l 11 626 l 11 558 l 79 558 l 79 124 l 39 76 l 143 -8 l 249 83 l 213 124 l 213 467 l 322 549 q 375 483 367 521 l 375 94 q 301 -60 375 -6 q 240 -94 282 -74 q 129 -140 197 -114 l 133 -149 q 372 -58 278 -121 q 501 144 501 22 z "},"i":{"ha":297,"x_min":0,"x_max":253,"o":"m 217 853 l 114 853 l 81 711 l 99 711 l 217 853 m 253 96 l 239 108 l 214 92 q 175 136 182 108 l 175 521 l 210 560 l 103 649 l 0 564 l 40 521 l 40 158 l 39 133 q 126 -7 32 43 l 253 96 z "},"j":{"ha":297,"x_min":-3,"x_max":260,"o":"m 244 853 l 142 853 l 108 711 l 126 711 l 244 853 m 260 533 q 195 590 226 561 q 133 647 164 619 l -3 543 l 7 533 l 50 557 l 100 510 q 60 313 60 417 q 64 252 60 290 q 78 156 68 214 q 94 26 94 51 q 14 -146 94 -74 l 24 -161 q 203 83 203 -81 l 203 117 q 201 163 203 133 q 193 238 199 193 q 189 300 189 275 q 260 533 189 422 z "},"k":{"ha":615,"x_min":4,"x_max":568,"o":"m 568 96 l 551 114 l 525 100 q 489 194 501 132 q 474 259 481 233 q 463 296 468 285 q 385 396 440 356 q 461 469 429 440 q 513 514 493 499 l 386 647 l 206 489 l 206 749 q 271 874 206 833 q 136 806 199 874 l 117 804 q 26 847 79 835 q 75 753 75 799 l 75 629 l 4 629 l 4 560 l 75 560 l 75 185 q 40 85 75 119 q 242 -7 122 60 l 375 133 q 442 -3 390 35 l 568 96 m 400 453 l 204 285 l 204 444 l 314 544 l 400 453 m 368 172 l 288 89 l 204 132 l 204 247 l 286 313 q 368 172 358 251 z "},"l":{"ha":371,"x_min":-3,"x_max":331,"o":"m 331 104 l 314 122 l 281 97 l 179 161 l 179 746 q 247 872 179 822 q 104 801 168 861 l 89 800 q -3 844 49 832 q 43 756 43 796 l 43 201 q 7 101 43 142 q 204 -4 139 53 l 331 104 z "},"m":{"ha":932,"x_min":15,"x_max":878,"o":"m 878 94 l 861 108 l 835 92 q 793 136 804 111 l 793 501 q 806 522 799 511 q 824 547 814 533 q 838 567 831 557 q 854 589 846 578 l 839 604 l 782 557 l 688 646 q 507 503 571 550 q 418 649 486 588 l 217 501 q 126 649 217 600 l 15 544 l 28 529 l 50 544 q 85 481 85 518 l 85 124 l 47 81 l 150 -8 l 251 81 l 214 128 l 214 467 l 324 549 q 379 481 379 511 l 379 124 l 338 81 l 444 -8 l 543 81 l 507 128 l 507 472 l 606 544 l 665 490 l 665 158 q 682 60 665 94 q 753 -8 700 21 l 878 94 z "},"n":{"ha":615,"x_min":0,"x_max":569,"o":"m 569 94 l 556 108 l 526 92 q 488 136 497 111 l 488 501 q 518 547 503 525 q 549 589 533 569 l 535 604 l 475 557 l 379 646 q 304 582 349 618 q 201 503 260 546 q 114 649 201 596 l 0 544 l 14 529 l 36 544 q 69 481 69 517 l 69 124 l 31 81 l 136 -8 l 236 81 l 199 128 l 199 472 l 297 544 l 360 490 l 360 158 q 377 60 360 96 q 444 -8 394 24 l 569 94 z "},"o":{"ha":538,"x_min":1,"x_max":457,"o":"m 457 99 l 457 551 q 236 649 367 564 q 39 538 150 568 l 39 208 q 1 101 39 132 q 251 -8 142 72 q 457 99 335 63 m 326 101 q 265 122 301 108 q 215 142 239 132 q 167 161 190 151 l 167 544 l 326 483 l 326 101 z "},"p":{"ha":550,"x_min":4,"x_max":499,"o":"m 499 128 l 499 436 q 360 649 499 601 l 217 514 q 121 650 204 606 l 4 546 l 19 535 l 53 556 q 85 474 85 536 l 85 157 q 11 132 33 142 l 11 92 l 42 92 q 82 86 67 92 l 85 -6 q 32 -154 88 -87 q 86 -133 58 -150 q 106 -119 93 -128 q 133 -96 118 -110 q 164 -129 153 -117 q 181 -144 175 -142 q 275 -183 215 -175 q 222 -90 233 -126 q 210 4 206 -40 l 214 54 q 331 0 290 17 q 381 45 361 28 q 411 69 401 63 q 499 128 458 104 m 375 104 q 297 131 336 118 q 214 154 257 143 l 214 472 l 297 546 q 324 533 310 542 q 349 514 338 525 q 367 491 360 503 q 375 468 375 479 l 375 104 z "},"q":{"ha":518,"x_min":7,"x_max":478,"o":"m 478 -154 q 425 -29 425 -85 l 425 483 l 460 528 q 201 649 335 553 q 7 549 121 578 l 7 158 q 94 -3 7 56 l 292 139 l 296 -26 q 236 -183 297 -100 q 328 -143 292 -175 l 374 -96 q 403 -119 390 -110 q 422 -133 415 -128 q 478 -154 450 -150 m 294 176 l 183 96 q 133 163 133 122 l 133 536 l 294 467 l 294 176 z "},"r":{"ha":457,"x_min":1,"x_max":438,"o":"m 438 549 l 347 647 l 207 540 q 179 607 201 583 q 119 649 163 626 l 1 544 l 17 529 l 40 544 q 74 481 74 517 l 74 201 q 36 101 74 132 q 214 -4 136 63 l 340 104 l 324 121 l 283 92 l 208 150 l 208 510 l 263 551 l 346 469 l 438 549 z "},"s":{"ha":560,"x_min":3,"x_max":510,"o":"m 510 685 q 468 736 510 736 q 435 714 435 736 l 442 701 q 472 649 472 663 q 456 615 472 629 q 419 600 439 600 l 383 596 q 206 653 322 596 q 35 538 128 579 l 35 324 l 168 250 l 3 14 l 21 1 q 161 33 96 33 q 301 -3 229 33 q 351 30 331 17 q 383 50 372 43 q 474 92 426 76 l 474 347 l 343 428 l 469 599 q 510 685 510 654 m 375 519 l 240 342 l 157 385 l 158 544 q 297 514 233 514 q 339 515 319 514 q 375 519 358 517 m 358 288 l 357 103 q 207 140 279 140 q 117 132 154 140 l 271 332 l 358 288 z "},"t":{"ha":363,"x_min":-7,"x_max":318,"o":"m 318 558 l 318 629 l 176 629 l 175 806 l -6 579 l -7 560 l 42 560 l 42 201 q 4 101 42 140 q 179 -4 81 75 l 304 104 l 289 124 l 250 93 l 176 154 l 176 558 l 318 558 z "},"u":{"ha":615,"x_min":3,"x_max":571,"o":"m 571 94 l 557 108 l 532 92 q 490 136 490 114 l 490 532 l 531 567 l 428 649 l 329 567 l 363 525 l 363 176 l 250 96 q 200 163 200 122 l 200 532 l 242 565 l 136 647 l 3 544 l 17 529 l 49 549 l 74 525 l 74 158 q 161 -3 74 53 l 360 139 q 447 -8 360 51 l 571 94 z "},"v":{"ha":532,"x_min":-7,"x_max":467,"o":"m 467 99 l 467 510 q 378 649 467 564 l 181 507 q 129 635 181 567 q 79 721 79 706 q 135 813 79 763 l 128 824 q -7 661 -7 751 q 50 532 -7 604 l 50 208 q 11 101 50 136 q 261 -8 150 72 q 467 99 338 58 m 336 101 l 276 122 q 178 161 215 143 l 178 467 l 289 549 q 336 469 336 497 l 336 101 z "},"w":{"ha":814,"x_min":4,"x_max":756,"o":"m 756 99 l 756 499 q 661 649 756 567 l 472 503 q 382 647 467 582 l 194 507 q 143 635 194 567 q 93 721 93 706 q 149 813 93 763 l 142 824 q 4 661 4 750 q 65 532 4 606 l 65 208 q 26 101 65 136 q 269 -8 175 61 q 397 44 335 44 q 560 -8 451 44 q 756 99 650 69 m 638 94 q 575 111 593 107 q 522 126 547 118 q 474 143 497 135 l 474 467 l 585 549 q 601 533 594 539 q 611 521 607 526 q 638 469 638 494 l 638 94 m 344 94 q 192 153 249 126 l 192 467 l 294 549 q 335 501 333 506 q 344 469 344 488 l 344 94 z "},"x":{"ha":615,"x_min":3,"x_max":569,"o":"m 569 96 l 557 110 l 519 88 q 431 196 468 126 l 324 389 l 389 526 l 496 478 l 539 578 l 411 647 l 313 424 q 270 494 289 463 q 236 550 251 526 q 190 606 217 582 q 131 647 163 629 l 3 549 l 14 536 l 60 564 q 143 482 117 532 l 242 304 l 161 131 l 51 169 l 8 67 l 138 -7 l 257 272 q 335 137 307 185 q 368 81 363 89 q 456 -8 410 22 l 569 96 z "},"y":{"ha":531,"x_min":-17,"x_max":494,"o":"m 494 428 q 410 647 494 558 l 222 500 q 133 649 222 601 l 0 532 l 15 514 l 60 546 q 93 481 93 514 l 93 113 q 38 22 93 94 q -17 -93 -17 -51 l -17 -104 q 125 -183 -8 -183 l 144 -183 q 224 -168 175 -183 q 283 -119 283 -150 q 281 -108 281 -110 q 264 -99 275 -99 q 206 -135 246 -99 q 119 -158 174 -158 q 49 -143 79 -158 q 11 -86 11 -125 l 10 -79 q 104 29 10 -32 q 176 69 144 51 q 232 99 208 86 q 413 231 344 156 q 494 428 494 321 m 378 389 q 328 239 378 315 q 218 124 282 172 l 218 464 l 313 538 q 378 389 378 481 z "},"z":{"ha":390,"x_min":0,"x_max":347,"o":"m 347 217 q 289 332 347 290 q 161 368 236 368 l 331 538 q 242 585 292 543 q 200 622 218 606 q 171 649 182 638 l 0 533 l 13 514 l 89 564 l 207 453 l 13 263 q 103 274 64 274 q 187 249 157 274 q 217 174 217 225 q 196 103 217 133 q 136 42 182 81 l 69 -12 q 40 -89 40 -44 q 67 -156 40 -129 q 135 -183 94 -183 q 171 -157 171 -172 q 150 -142 171 -142 q 124 -146 142 -142 q 97 -150 106 -150 q 53 -97 53 -137 q 99 -22 53 -50 q 213 41 174 18 q 260 68 253 64 q 347 217 347 124 z "},"{":{"ha":489,"x_min":-3,"x_max":449,"o":"m 449 -158 l 449 -128 q 310 -78 343 -128 q 286 61 283 -40 l 288 101 l 288 167 q 260 338 288 289 q 100 436 221 404 l 100 442 q 261 540 225 474 q 288 717 288 588 l 288 776 l 286 817 q 311 958 283 914 q 449 1010 344 1010 l 449 1039 q 250 997 306 1039 q 183 810 183 947 l 185 664 q 146 513 185 553 q -3 457 104 471 l -3 419 q 146 365 106 407 q 185 213 185 325 l 185 74 q 247 -117 185 -67 q 449 -158 301 -158 z "},"|":{"ha":129,"x_min":3,"x_max":97,"o":"m 97 -324 l 97 1071 l 3 1071 l 3 -324 l 97 -324 z "},"}":{"ha":489,"x_min":-4,"x_max":449,"o":"m 449 419 l 449 457 q 303 507 342 471 q 258 653 258 549 l 260 803 q 196 996 260 946 q -4 1039 143 1039 l -4 1010 q 132 957 99 1010 q 154 817 154 922 l 154 776 l 153 717 q 182 539 151 594 q 343 442 221 471 l 343 436 q 182 338 221 406 q 153 167 150 281 l 154 101 l 154 61 q 131 -79 154 -43 q -4 -128 99 -128 l -4 -158 q 196 -117 142 -158 q 260 74 260 -69 l 260 213 l 258 221 q 301 369 258 328 q 449 419 342 407 z "},"~":{"ha":465,"x_min":54,"x_max":411,"o":"m 351 582 l 335 576 l 332 528 l 58 439 l 54 281 l 72 288 l 78 326 l 350 415 l 351 582 m 411 397 l 394 392 l 392 343 l 118 254 l 114 96 l 133 101 l 138 142 l 410 229 l 411 397 z "},"‚":{"ha":250,"x_min":10,"x_max":217,"o":"m 217 107 q 178 143 194 128 q 153 168 163 158 q 131 191 140 182 q 115 207 122 200 l 10 107 q 72 8 72 42 q 10 -81 72 -26 l 35 -108 q 217 107 164 -25 z "},"ƒ":{"ha":633,"x_min":-86,"x_max":721,"o":"m 599 776 l 721 863 q 688 906 701 889 q 668 929 675 922 q 583 992 619 992 l 572 992 q 492 953 544 988 q 435 912 460 933 q 393 867 411 890 q 345 779 367 832 q 308 651 324 726 l 267 465 l 175 465 l 86 378 l 135 353 l 160 375 l 249 375 l 160 -40 q 114 -175 139 -137 q 95 -156 106 -169 q 71 -124 85 -143 q 53 -96 61 -110 q 35 -68 44 -82 l -86 -161 q -60 -194 -71 -181 q -43 -214 -50 -207 q -10 -258 -12 -256 q 36 -283 11 -283 q 71 -274 50 -283 q 140 -237 114 -251 q 176 -217 167 -224 q 321 44 281 -142 l 392 375 l 497 375 l 572 457 l 531 485 l 511 465 l 411 465 l 465 717 q 517 882 493 843 q 565 824 544 850 q 599 776 586 799 z "},"„":{"ha":488,"x_min":10,"x_max":467,"o":"m 467 107 q 428 143 444 128 q 403 168 413 158 q 381 191 390 182 q 365 207 372 200 l 260 107 q 322 8 322 42 q 260 -81 322 -26 l 285 -108 q 467 107 414 -25 m 217 107 q 178 143 194 128 q 153 168 163 158 q 131 191 140 182 q 115 207 122 200 l 10 107 q 72 8 72 42 q 10 -81 72 -26 l 35 -108 q 217 107 164 -25 z "},"…":{"ha":876,"x_min":-3,"x_max":810,"o":"m 810 96 q 764 141 790 114 q 704 207 738 168 l 593 101 q 640 44 615 71 q 696 -7 665 17 l 810 96 m 504 96 q 458 141 485 114 q 399 207 432 168 l 288 101 q 335 44 310 71 q 390 -7 360 17 l 504 96 m 213 96 q 167 141 193 114 q 107 207 140 168 l -3 101 q 99 -7 40 40 l 213 96 z "},"†":{"ha":488,"x_min":25,"x_max":465,"o":"m 465 535 l 465 661 l 268 621 l 306 932 l 188 932 l 225 621 l 25 661 l 25 535 l 224 575 l 176 -235 l 313 -235 l 268 575 l 465 535 z "},"‡":{"ha":488,"x_min":25,"x_max":465,"o":"m 465 33 l 465 160 l 268 119 l 294 347 l 268 575 l 465 535 l 465 661 l 268 621 l 306 932 l 188 932 l 225 621 l 25 661 l 25 535 l 224 575 l 197 347 l 224 119 l 25 160 l 25 33 l 225 74 l 188 -235 l 306 -235 l 268 74 l 465 33 z "},"ˆ":{"ha":453,"x_min":17,"x_max":397,"o":"m 397 744 q 242 953 317 836 l 172 953 q 100 847 125 881 q 61 798 82 824 q 17 744 40 772 l 33 731 q 207 869 144 790 q 379 732 278 788 l 397 744 z "},"‰":{"ha":1400,"x_min":0,"x_max":1360,"o":"m 1356 261 l 1351 313 q 1281 436 1336 386 q 1157 508 1242 471 q 1022 393 1069 453 q 961 231 961 315 l 964 221 q 1174 -4 964 63 q 1324 143 1282 76 q 1356 261 1360 204 m 911 261 l 907 313 q 836 436 892 386 q 713 508 797 471 q 578 393 625 453 q 517 231 517 315 l 519 221 q 729 -4 519 63 q 879 143 838 76 q 911 261 915 204 m 736 858 l 665 858 l 168 -4 l 239 -4 l 736 858 m 388 613 l 386 660 q 315 785 371 735 q 192 857 271 822 q 0 583 0 749 l 0 571 q 204 339 0 415 q 332 458 292 406 q 388 613 390 535 m 1285 213 q 1228 76 1285 133 q 1090 150 1147 90 q 1035 289 1035 207 q 1094 432 1035 372 q 1269 292 1219 408 q 1285 213 1285 238 m 840 213 q 783 76 840 133 q 646 150 703 90 q 590 289 590 207 q 650 432 590 372 q 825 292 775 408 q 840 213 840 238 m 319 560 q 258 426 319 485 q 124 499 178 440 q 69 636 69 557 q 131 782 69 714 q 304 638 260 753 q 319 560 319 596 z "},"Š":{"ha":997,"x_min":-3,"x_max":965,"o":"m 586 1190 l 565 1206 q 403 1065 479 1158 q 238 1207 340 1146 l 219 1190 q 369 976 310 1083 l 439 976 q 586 1190 500 1081 m 965 367 l 965 374 q 849 569 965 500 q 613 625 771 614 l 567 628 l 699 864 l 674 882 l 643 828 q 378 919 510 865 l 249 804 q 178 715 207 767 q 149 611 149 664 q 38 478 38 558 q 47 433 38 458 q 171 318 78 354 q 332 293 256 288 l 349 294 l 317 226 q 263 231 290 229 q 204 233 235 233 q -3 89 -3 233 q 7 45 -3 65 q 33 10 17 25 q 72 -13 50 -4 q 119 -24 94 -22 l 161 -26 q 308 0 218 -31 q 359 19 325 6 q 444 56 393 33 l 617 -15 q 772 74 715 35 q 965 367 965 204 m 576 708 l 529 624 l 454 613 q 415 608 435 610 q 378 606 396 606 q 238 697 238 606 l 236 701 q 274 769 236 744 q 351 793 308 793 l 374 793 q 576 708 472 783 m 871 317 q 742 94 871 207 l 618 142 q 687 181 658 164 q 732 211 715 197 q 793 310 793 260 q 783 357 793 336 q 617 432 751 432 q 553 429 592 432 q 461 421 514 426 l 500 501 q 565 509 535 507 q 622 511 594 511 q 868 363 843 511 q 870 347 869 354 q 871 333 871 340 l 871 317 m 456 494 l 414 418 q 355 410 381 413 q 310 407 329 407 q 226 418 264 407 q 157 454 188 429 q 121 517 121 486 q 158 585 121 549 q 356 489 200 489 q 399 490 374 489 q 456 494 424 492 m 674 267 q 633 204 674 242 l 578 158 q 350 221 419 208 l 388 296 q 575 313 560 313 q 653 303 629 313 q 674 267 674 290 m 399 68 q 147 -4 260 -4 q 47 44 71 -4 l 40 67 q 76 118 40 99 q 142 133 107 133 q 399 68 244 133 z "},"‹":{"ha":308,"x_min":0,"x_max":261,"o":"m 261 143 l 114 325 l 261 511 l 182 558 q 106 456 151 514 q 0 325 61 397 q 92 213 43 272 q 129 162 107 192 q 179 93 151 132 l 261 143 z "},"Œ":{"ha":1388,"x_min":-14,"x_max":1358,"o":"m 1358 221 l 1351 228 q 1228 138 1272 161 q 1078 103 1163 103 l 1078 490 l 1256 492 l 1322 631 l 1199 633 l 1356 839 l 1343 838 q 1100 911 1186 838 l 864 678 l 864 328 q 832 242 864 271 q 768 514 768 351 q 807 693 768 621 q 926 831 840 757 l 924 838 q 733 682 793 772 q 403 913 613 883 q 241 778 332 850 q 35 621 150 706 q -3 453 6 517 q -11 340 -14 378 l -7 265 q 81 69 11 146 q 274 -15 157 -15 q 674 269 493 -15 q 1026 -14 771 -14 q 1358 221 1249 -14 m 1213 700 l 1076 513 l 1078 761 l 1213 700 m 1043 106 q 849 221 906 129 q 982 471 982 326 l 982 739 l 1042 793 l 1043 106 m 613 618 q 493 553 560 553 q 382 608 429 553 l 383 772 q 613 618 547 736 m 651 464 q 647 431 651 456 q 636 363 643 406 q 501 429 574 429 q 383 385 440 429 l 383 568 q 489 531 429 531 q 622 592 561 531 q 651 464 651 514 m 625 324 q 583 245 607 281 q 532 181 560 210 q 383 103 463 111 l 382 346 q 497 404 433 404 q 625 324 574 404 m 353 103 q 171 193 249 103 q 288 432 288 318 l 289 774 l 353 774 l 353 103 m 188 351 q 156 215 188 272 q 94 428 94 321 q 188 707 94 568 l 188 351 z "},"‘":{"ha":250,"x_min":19,"x_max":226,"o":"m 226 721 q 164 819 164 785 q 226 910 164 856 l 201 938 q 19 721 72 853 l 83 660 q 104 639 94 649 q 121 621 114 629 l 226 721 z "},"’":{"ha":250,"x_min":10,"x_max":217,"o":"m 217 815 q 178 851 194 836 q 153 876 163 867 q 131 899 140 890 q 115 915 122 908 l 10 815 q 72 717 72 750 q 10 626 72 681 l 35 599 q 217 815 164 683 z "},"“":{"ha":488,"x_min":19,"x_max":476,"o":"m 476 721 q 414 819 414 785 q 476 910 414 856 l 451 938 q 269 721 322 853 l 333 660 q 354 639 344 649 q 371 621 364 629 l 476 721 m 226 721 q 164 819 164 785 q 226 910 164 856 l 201 938 q 19 721 72 853 l 83 660 q 104 639 94 649 q 121 621 114 629 l 226 721 z "},"”":{"ha":488,"x_min":10,"x_max":467,"o":"m 467 815 q 428 851 444 836 q 403 876 413 867 q 381 899 390 890 q 365 915 372 908 l 260 815 q 322 717 322 750 q 260 626 322 681 l 285 599 q 467 815 414 683 m 217 815 q 178 851 194 836 q 153 876 163 867 q 131 899 140 890 q 115 915 122 908 l 10 815 q 72 717 72 750 q 10 626 72 681 l 35 599 q 217 815 164 683 z "},"•":{"ha":739,"x_min":133,"x_max":610,"o":"m 610 446 q 501 551 558 490 q 378 690 444 613 l 133 458 q 239 328 182 388 q 360 217 296 268 l 610 446 z "},"–":{"ha":760,"x_min":40,"x_max":707,"o":"m 707 375 l 707 468 l 40 468 l 40 375 l 707 375 z "},"—":{"ha":903,"x_min":40,"x_max":846,"o":"m 846 375 l 846 468 l 40 468 l 40 375 l 846 375 z "},"˜":{"ha":615,"x_min":89,"x_max":496,"o":"m 496 893 l 471 901 l 450 868 q 408 858 413 858 q 306 879 374 858 q 203 900 236 900 q 117 844 147 900 q 100 812 107 825 q 89 789 93 799 l 113 782 l 132 821 l 158 821 q 205 814 171 821 q 297 793 239 807 q 379 782 346 782 q 454 821 425 782 l 496 893 z "},"™":{"ha":997,"x_min":7,"x_max":982,"o":"m 436 953 l 432 953 q 365 917 408 917 q 340 919 354 917 q 310 924 325 921 q 282 932 296 928 q 258 940 268 936 q 174 949 221 949 q 7 821 28 949 l 10 821 q 118 885 56 888 l 160 883 q 117 847 136 864 q 88 815 99 831 q 36 678 36 754 q 71 572 36 619 q 247 488 129 488 q 303 494 272 488 q 433 642 399 519 l 431 643 q 311 551 385 575 l 311 857 l 319 856 q 401 877 367 851 q 436 953 436 903 m 296 549 l 288 546 q 175 581 219 546 q 209 615 194 600 q 231 643 224 631 q 251 725 251 678 l 251 867 l 296 857 l 296 549 m 183 649 q 160 592 183 613 q 103 719 103 646 q 172 881 103 807 l 183 878 l 183 649 m 982 550 l 974 558 q 958 549 965 549 q 942 586 942 549 l 942 857 q 968 917 942 881 l 961 922 l 933 901 l 861 951 l 747 878 q 692 953 736 924 l 568 886 q 485 729 485 840 q 408 667 421 721 q 446 675 433 675 q 469 669 458 675 q 524 586 524 650 q 517 553 524 571 q 432 518 504 532 q 375 438 375 506 l 379 438 q 431 468 396 468 q 466 464 442 468 q 503 460 490 460 q 551 474 529 460 q 597 571 597 503 l 597 701 l 674 701 l 674 588 q 657 560 674 574 l 657 554 q 690 527 672 543 q 726 489 707 511 l 831 582 l 821 593 l 806 581 l 806 701 l 842 751 l 806 751 l 806 897 l 819 904 l 869 868 l 871 575 q 921 489 871 507 l 982 550 m 792 751 l 747 751 l 746 856 l 792 886 l 792 751 m 674 872 l 674 751 l 624 751 l 596 711 l 596 829 q 631 903 596 869 q 674 872 674 903 m 792 569 l 769 549 q 746 585 746 557 l 747 701 l 792 701 l 792 569 m 596 881 q 583 833 583 857 l 583 575 q 540 521 583 521 q 511 528 532 521 q 554 611 554 550 l 554 797 q 593 883 554 853 l 596 881 z "},"š":{"ha":583,"x_min":17,"x_max":524,"o":"m 464 950 l 443 965 q 281 825 357 918 q 115 967 218 906 l 97 950 q 247 736 188 843 l 317 736 q 464 950 378 840 m 524 685 q 482 736 524 736 q 449 714 449 736 l 456 701 q 486 649 486 663 q 469 615 486 629 q 433 600 453 600 l 397 596 q 219 653 336 596 q 49 538 142 579 l 49 324 l 182 250 l 17 14 l 35 1 q 175 33 110 33 q 315 -3 243 33 q 365 30 344 17 q 397 50 386 43 q 488 92 440 76 l 488 347 l 357 428 l 483 599 q 524 685 524 654 m 389 519 l 254 342 l 171 385 l 172 544 q 311 514 247 514 q 353 515 333 514 q 389 519 372 517 m 372 288 l 371 103 q 221 140 293 140 q 131 132 168 140 l 285 332 l 372 288 z "},"›":{"ha":308,"x_min":42,"x_max":303,"o":"m 303 325 q 238 402 263 374 q 207 440 214 431 q 162 499 183 469 q 121 558 140 528 l 42 511 l 189 325 l 42 143 l 124 93 q 219 221 175 164 q 303 325 264 278 z "},"œ":{"ha":739,"x_min":3,"x_max":685,"o":"m 685 471 l 511 649 l 454 613 q 421 593 436 601 q 393 578 406 585 l 369 578 q 240 649 282 624 q 42 538 151 569 l 42 208 q 3 101 42 136 q 250 -7 144 69 q 298 26 278 13 q 333 49 318 40 l 361 49 l 474 -4 q 585 74 536 40 q 668 132 633 108 l 656 149 l 564 92 l 446 143 l 446 288 l 685 471 m 574 419 l 449 326 l 449 544 l 574 419 m 328 483 l 326 101 l 267 122 q 168 161 206 143 l 169 544 l 328 483 z "},"Ÿ":{"ha":879,"x_min":3,"x_max":853,"o":"m 661 1126 q 613 1176 633 1154 q 579 1214 593 1199 l 493 1131 l 572 1044 l 661 1126 m 424 1126 q 403 1145 414 1135 q 382 1169 393 1156 q 365 1188 375 1176 q 343 1214 356 1199 l 258 1131 q 275 1110 265 1121 q 297 1086 285 1100 l 336 1044 l 424 1126 m 853 539 q 851 590 853 563 q 843 649 849 617 q 765 810 829 744 q 603 878 699 878 q 353 775 497 878 q 287 871 335 835 q 176 907 239 907 q 65 878 125 907 l 65 871 l 72 871 q 179 834 149 871 q 207 718 210 797 l 204 621 q 113 635 168 635 q 61 625 82 635 q 169 551 140 589 q 207 428 207 506 l 204 413 q 88 438 154 438 l 57 438 l 57 432 q 129 386 97 414 q 185 322 161 358 q 207 221 208 281 l 206 175 q 65 131 122 175 q 3 0 3 82 q 60 -135 3 -78 q 196 -192 117 -192 q 304 -167 251 -192 q 430 -104 376 -131 q 519 -58 483 -78 q 547 -50 536 -50 q 565 -60 564 -50 q 571 -72 569 -64 q 556 -111 571 -83 l 550 -135 q 583 -185 550 -175 l 606 -189 q 654 -126 654 -189 q 631 -62 654 -90 q 514 -14 586 -14 q 356 -53 463 -14 q 278 -83 317 -68 q 200 -112 239 -97 l 161 -114 q 66 -83 103 -115 q 29 3 29 -51 q 100 115 29 79 q 239 144 156 144 l 475 144 q 756 250 658 144 q 853 539 853 356 m 683 621 q 558 568 611 568 q 440 615 501 568 l 440 789 q 524 808 492 808 q 683 621 651 808 m 694 497 q 686 396 694 467 q 553 438 617 438 q 442 404 493 438 l 442 579 q 553 546 496 546 q 688 594 618 546 q 691 546 688 578 q 694 497 694 514 m 679 368 q 589 206 651 260 q 461 169 546 169 l 442 169 l 440 375 q 556 415 497 415 q 679 368 618 415 m 411 169 l 349 169 l 347 743 l 410 772 l 411 169 z "},"¡":{"ha":250,"x_min":0,"x_max":217,"o":"m 0 111 l 104 -7 l 207 111 q 174 238 189 174 q 147 374 158 303 q 114 636 131 471 l 92 636 q 58 372 75 478 q 0 111 35 224 m 0 806 q 103 694 75 729 l 217 800 q 167 860 193 832 q 113 910 140 888 l 0 806 z "},"¢":{"ha":592,"x_min":88,"x_max":567,"o":"m 415 93 q 484 170 454 138 q 535 226 514 203 l 508 250 l 460 197 q 433 208 444 204 q 415 215 422 213 l 415 629 q 567 736 526 633 l 564 743 q 515 726 540 726 q 415 772 458 726 l 415 903 l 376 903 l 376 788 q 172 708 289 708 q 122 713 160 708 q 151 586 151 664 l 151 217 q 88 144 106 186 l 92 138 q 143 151 114 151 q 376 69 240 151 l 376 -54 l 415 -54 l 415 93 m 376 232 q 334 244 353 239 q 304 250 315 249 l 304 697 q 376 638 344 651 l 376 232 z "},"£":{"ha":772,"x_min":33,"x_max":768,"o":"m 768 110 l 739 133 l 710 99 q 457 150 597 150 q 276 119 372 150 q 333 290 333 189 l 333 379 l 454 379 q 526 372 503 379 q 519 400 519 386 q 531 461 519 419 q 544 506 540 489 q 550 525 549 522 q 447 504 510 504 l 333 504 l 333 733 q 417 826 333 826 q 571 749 489 826 l 535 706 l 558 686 l 706 851 q 518 917 625 917 q 346 846 443 917 q 270 788 301 814 q 222 740 239 761 q 169 593 169 675 l 169 504 l 129 504 q 57 511 81 504 q 64 483 64 497 q 53 422 64 464 q 38 374 43 390 q 33 358 33 358 q 136 379 72 379 l 169 379 l 169 197 q 143 96 169 131 q 106 62 132 82 q 38 15 79 42 l 54 -19 q 279 25 171 25 q 626 -68 486 25 l 768 110 z "},"¤":{"ha":833,"x_min":38,"x_max":796,"o":"m 796 160 l 665 292 q 719 464 719 372 q 665 636 719 554 l 796 765 l 721 843 l 589 710 q 417 764 511 764 q 244 710 324 764 l 115 843 l 38 765 l 171 635 q 117 464 117 557 q 171 292 117 371 l 38 160 l 115 85 l 244 215 q 417 161 325 161 q 589 215 507 161 l 721 85 l 796 160 m 624 464 q 563 317 624 381 q 417 254 501 254 q 272 317 332 254 q 213 464 213 378 q 272 608 213 547 q 417 671 332 671 q 563 608 501 671 q 624 464 624 544 z "},"¥":{"ha":900,"x_min":92,"x_max":872,"o":"m 686 94 l 663 118 l 626 88 q 538 132 582 121 l 538 410 l 707 410 l 707 460 l 538 460 l 538 518 l 707 518 l 707 568 l 546 568 q 583 652 565 611 q 617 733 601 693 q 688 719 646 719 q 810 771 758 719 q 872 890 853 817 l 861 897 q 765 858 826 858 q 640 917 699 858 q 569 729 606 819 q 493 553 533 639 q 343 849 407 771 q 199 917 288 913 q 92 746 161 840 l 103 735 q 161 757 129 757 q 268 688 219 757 q 292 644 278 674 q 329 568 307 614 l 188 568 l 188 518 l 351 518 l 378 460 l 188 460 l 188 410 l 385 410 l 385 125 q 215 -3 286 93 l 226 -17 q 326 7 271 7 q 518 -68 431 7 q 615 26 574 -15 q 686 94 657 67 z "},"¦":{"ha":129,"x_min":3,"x_max":97,"o":"m 97 465 l 97 982 l 3 982 l 3 465 l 97 465 m 97 -232 l 97 279 l 3 279 l 3 -232 l 97 -232 z "},"§":{"ha":581,"x_min":7,"x_max":525,"o":"m 525 419 q 510 515 525 474 q 341 560 406 542 q 249 589 276 578 q 136 669 163 624 q 119 726 119 700 q 156 828 119 771 l 472 746 l 517 860 l 275 911 q 114 829 183 897 q 42 667 42 757 q 96 532 42 594 q 22 331 22 408 q 38 243 22 307 l 175 201 q 394 110 335 153 q 432 18 432 82 q 399 -101 432 -46 l 47 -17 l 7 -128 l 275 -185 q 442 -94 368 -175 q 515 76 515 -17 q 453 219 515 157 q 525 419 525 333 m 447 358 q 433 293 447 333 q 426 272 431 285 q 414 239 421 258 l 275 281 q 140 329 194 306 q 94 397 94 350 q 129 515 94 429 q 166 501 149 507 q 199 489 183 494 q 222 481 206 486 q 267 469 239 476 l 346 449 q 417 424 400 433 q 447 358 447 403 z "},"¨":{"ha":458,"x_min":10,"x_max":411,"o":"m 411 857 q 364 908 383 886 q 331 944 344 929 l 243 861 l 324 775 l 411 857 m 175 857 q 151 881 161 871 q 133 900 140 892 q 112 924 122 914 q 94 944 101 935 l 10 861 l 88 775 l 175 857 z "},"©":{"ha":997,"x_min":-7,"x_max":961,"o":"m 961 469 q 818 811 961 669 q 478 954 676 954 q 135 810 276 954 q -7 464 -7 665 q 133 125 -7 265 q 475 -15 276 -15 q 819 125 676 -15 q 961 469 961 267 m 906 467 q 779 165 906 293 q 482 36 651 36 l 475 39 q 206 136 325 39 q 58 379 85 236 q 50 463 50 422 q 174 771 50 643 q 478 899 299 899 q 779 771 651 899 q 906 467 906 644 m 738 325 l 732 326 q 664 275 672 281 q 546 238 607 238 q 522 240 538 238 q 499 243 507 243 l 499 703 q 567 680 535 692 q 632 654 600 668 l 715 746 q 525 801 618 746 l 336 642 l 336 411 q 324 338 336 363 q 264 503 264 414 q 382 742 264 644 q 236 624 290 710 q 186 440 186 542 q 226 285 186 354 q 474 154 303 154 q 538 160 511 154 q 738 325 664 181 m 475 246 q 336 328 388 269 q 407 403 386 371 q 433 503 433 446 l 433 685 l 475 719 l 475 246 z "},"ª":{"ha":397,"x_min":0,"x_max":361,"o":"m 361 533 l 350 546 l 331 531 q 301 564 307 547 l 301 824 q 336 899 313 863 l 333 901 l 304 883 l 165 931 q 67 889 125 889 l 51 892 l 97 768 q 0 586 0 675 q 69 458 0 528 l 79 458 l 208 565 q 271 460 208 497 l 361 533 m 210 826 l 208 717 l 113 767 l 69 881 l 210 826 m 210 594 l 142 531 q 82 656 82 582 q 111 754 82 697 l 210 703 l 210 594 z "},"«":{"ha":550,"x_min":0,"x_max":506,"o":"m 506 143 l 356 325 l 501 511 l 422 558 q 388 508 403 531 q 358 468 372 486 l 244 325 q 333 217 289 274 q 422 93 378 160 l 506 143 m 261 143 l 114 325 l 261 511 l 182 558 q 106 456 151 514 q 0 325 61 397 q 92 213 43 272 q 129 162 107 192 q 179 93 151 132 l 261 143 z "},"¬":{"ha":458,"x_min":-6,"x_max":417,"o":"m 417 -122 l 63 911 l -6 911 l 350 -122 l 417 -122 z "},"®":{"ha":997,"x_min":-7,"x_max":961,"o":"m 961 467 q 819 811 961 667 q 478 954 678 954 q 136 806 281 954 q -7 460 -7 658 l -7 421 q 150 111 10 239 q 475 -15 289 -15 q 817 126 672 -15 q 961 467 961 268 m 819 233 l 808 246 l 786 229 q 736 315 754 261 q 694 418 708 394 q 585 522 658 479 l 721 619 l 672 688 q 624 751 646 724 q 588 799 603 779 l 415 685 q 303 794 403 794 q 178 746 235 794 l 178 733 q 240 744 219 744 q 319 654 322 744 l 319 613 l 161 494 q 322 290 322 415 q 158 182 222 258 q 58 379 81 268 q 50 463 50 422 q 174 771 50 643 q 478 899 299 899 q 778 771 653 899 q 903 467 903 643 q 778 165 903 294 q 482 36 653 36 l 475 39 q 169 171 301 39 q 335 204 267 204 q 353 204 344 204 q 371 203 363 204 q 443 181 410 199 q 468 167 451 176 q 508 142 485 157 l 607 243 l 594 256 l 575 238 q 531 259 553 249 q 485 278 508 269 l 485 446 q 592 386 553 446 q 613 344 599 375 q 649 261 628 313 q 721 147 682 178 l 731 147 l 819 233 m 625 574 l 485 471 l 485 707 l 515 728 l 625 574 m 465 285 q 421 290 447 290 l 421 663 l 465 692 l 465 285 m 318 479 l 244 538 l 318 586 l 318 479 z "},"¯":{"ha":728,"x_min":0,"x_max":696,"o":"m 696 979 l 696 1071 l 0 1071 l 0 979 l 696 979 z "},"°":{"ha":428,"x_min":3,"x_max":392,"o":"m 392 803 q 335 940 392 883 q 199 997 278 997 l 193 996 q 58 938 114 996 q 3 803 3 882 q 5 794 3 804 q 10 764 7 785 q 32 702 15 731 q 74 653 49 674 q 131 620 99 632 q 197 608 163 608 q 333 665 276 608 q 392 803 392 724 m 331 801 q 293 704 331 743 q 197 665 256 665 q 101 702 135 665 q 67 801 67 739 q 103 899 67 860 q 197 938 139 938 q 293 899 256 938 q 331 801 331 860 z "},"±":{"ha":849,"x_min":0,"x_max":818,"o":"m 818 493 l 818 583 l 457 585 l 456 818 l 363 818 l 361 585 l 0 583 l 0 493 l 361 492 l 363 261 l 456 261 l 457 492 l 818 493 m 818 25 l 818 114 l 0 114 l 0 25 l 818 25 z "},"²":{"ha":397,"x_min":-1,"x_max":365,"o":"m 365 404 q 231 433 304 433 q 44 399 154 433 q 247 542 79 440 q 360 725 360 610 l 360 740 l 167 849 l 10 736 l 65 688 l 219 794 q 269 699 269 750 q 190 561 269 628 q 75 464 76 464 q -1 339 11 400 q 150 365 74 365 q 304 338 224 365 l 365 404 z "},"³":{"ha":397,"x_min":-3,"x_max":363,"o":"m 138 338 q 283 369 219 338 q 363 483 363 408 q 228 608 363 574 q 342 736 346 658 l 340 761 l 158 849 l 35 760 l 82 715 l 188 786 q 219 797 206 797 q 254 751 254 797 q 100 614 254 628 l 100 600 l 124 600 q 240 557 199 600 q 274 471 274 521 q 228 365 274 411 l 53 499 l -3 446 l 138 338 z "},"´":{"ha":453,"x_min":106,"x_max":404,"o":"m 404 924 l 310 954 q 106 750 228 851 l 154 729 q 404 924 321 819 z "},"µ":{"ha":622,"x_min":1,"x_max":614,"o":"m 201 -12 l 388 181 q 408 58 388 89 q 483 -12 431 29 l 494 -12 l 614 140 l 600 154 l 551 101 q 517 156 517 101 l 517 519 q 530 555 517 538 q 556 576 543 572 l 556 586 q 457 696 492 603 l 446 696 q 347 586 415 607 l 347 576 q 388 519 388 561 l 388 213 l 274 93 q 215 153 232 142 l 215 549 q 126 690 215 639 l 114 690 l 1 547 l 14 535 l 53 578 q 88 522 88 565 l 90 107 q 102 -38 92 40 q 135 -212 113 -117 l 144 -212 q 201 -12 201 -14 z "},"¶":{"ha":640,"x_min":0,"x_max":610,"o":"m 610 960 l 610 1015 l 269 1015 q 81 956 154 1015 q 0 779 0 892 q 90 596 0 665 q 257 542 161 542 l 258 6 l 329 6 l 331 958 l 456 958 l 457 6 l 525 6 l 526 958 l 610 960 z "},"·":{"ha":336,"x_min":57,"x_max":274,"o":"m 274 457 q 228 502 254 475 q 168 568 201 529 l 57 463 q 104 404 79 432 q 160 353 129 376 l 274 457 z "},"∙":{"ha":336,"x_min":57,"x_max":274,"o":"m 274 457 q 228 502 254 475 q 168 568 201 529 l 57 463 q 104 404 79 432 q 160 353 129 376 l 274 457 z "},"¸":{"ha":342,"x_min":0,"x_max":301,"o":"m 301 -194 q 239 -106 301 -137 q 125 -82 188 -82 l 124 24 l 92 24 l 92 -17 q 83 -122 92 -83 q 167 -131 139 -122 q 226 -182 214 -144 l 226 -192 q 196 -249 226 -224 l 24 -217 l 0 -279 l 222 -319 q 301 -194 301 -257 z "},"¹":{"ha":281,"x_min":-1,"x_max":242,"o":"m 242 417 l 232 424 l 200 397 l 160 426 l 160 742 q 96 849 160 806 l -1 771 l 6 763 l 39 790 q 79 732 79 763 l 79 435 q 60 400 79 417 l 147 339 l 242 417 z "},"º":{"ha":368,"x_min":7,"x_max":329,"o":"m 329 535 l 329 858 q 174 931 256 869 q 33 850 110 868 l 33 614 q 7 535 33 563 q 182 460 99 515 q 329 535 244 508 m 238 811 l 236 538 l 125 576 l 126 854 q 155 842 142 847 q 182 831 168 836 q 202 823 189 828 q 238 811 215 818 z "},"»":{"ha":550,"x_min":7,"x_max":508,"o":"m 508 325 q 333 558 418 435 l 251 508 l 397 325 l 251 140 l 331 93 q 374 159 353 129 q 415 215 396 189 q 508 325 447 256 m 268 324 q 162 460 206 403 q 90 558 118 518 l 7 508 l 154 325 l 7 140 l 86 93 q 169 208 124 151 q 268 324 215 265 z "},"¼":{"ha":910,"x_min":-3,"x_max":871,"o":"m 871 157 l 854 210 l 782 211 l 781 400 q 719 478 781 442 l 507 221 l 528 157 l 704 156 q 706 128 704 146 q 708 100 708 110 q 679 54 708 83 l 768 0 l 849 63 l 842 72 l 814 54 l 781 76 l 782 156 l 871 157 m 713 858 l 653 858 l 24 -4 l 79 -4 l 713 858 m 228 446 l 221 453 l 189 426 l 149 454 l 149 751 q 125 818 149 792 q 110 831 119 824 q 88 849 101 839 l -3 779 l 3 768 l 35 793 q 72 736 72 769 l 72 467 q 51 431 72 449 l 139 371 l 228 446 m 706 379 l 704 211 l 531 211 l 526 219 l 685 407 q 706 379 706 386 z "},"½":{"ha":879,"x_min":-3,"x_max":844,"o":"m 844 64 q 717 90 790 90 q 546 58 633 90 l 542 63 q 732 192 572 97 q 839 360 839 254 l 839 376 l 656 478 l 507 369 l 558 325 l 707 428 q 756 339 756 388 q 679 210 756 272 l 592 139 q 494 0 511 75 q 638 26 578 26 q 786 0 694 26 l 844 64 m 713 858 l 653 858 l 24 -4 l 79 -4 l 713 858 m 228 446 l 221 453 l 189 426 l 149 454 l 149 751 q 125 818 149 792 q 110 831 119 824 q 88 849 101 839 l -3 779 l 3 768 l 35 793 q 72 736 72 769 l 72 467 q 51 431 72 449 l 139 371 l 228 446 z "},"¾":{"ha":1057,"x_min":-3,"x_max":1015,"o":"m 1015 157 l 1001 210 l 929 211 l 928 400 q 865 478 928 442 l 654 221 l 675 157 l 853 156 l 854 101 q 825 54 854 81 l 914 0 l 994 63 l 988 72 l 961 54 l 928 76 l 929 156 l 1015 157 m 863 858 l 803 858 l 172 -4 l 229 -4 l 863 858 m 349 504 q 218 625 349 582 q 329 744 333 674 l 328 768 l 151 847 l 32 767 l 76 724 l 179 793 q 208 801 192 801 q 243 757 243 801 q 96 631 243 647 l 96 617 q 232 576 194 617 q 264 497 264 540 q 217 396 264 443 l 53 519 l -3 471 l 133 369 q 271 399 210 369 q 349 504 349 436 m 854 379 l 853 211 l 676 211 l 672 219 l 829 408 q 840 401 836 403 q 846 397 844 399 q 854 379 854 389 z "},"¿":{"ha":397,"x_min":-1,"x_max":358,"o":"m 310 799 q 208 911 263 863 l 96 806 q 151 747 126 775 q 199 692 176 719 l 310 799 m 358 147 q 294 121 311 125 q 231 108 258 108 l 217 110 q 133 221 133 126 l 132 226 q 168 364 150 296 q 206 501 186 432 q 210 551 208 528 q 213 593 213 574 l 213 635 l 179 635 q 106 400 179 506 q 3 219 18 275 q 0 181 0 206 q 17 103 -1 139 q 67 41 36 67 q 137 2 99 15 q 213 -7 175 -11 l 283 -3 l 358 147 z "},"À":{"ha":849,"x_min":0,"x_max":807,"o":"m 658 1035 q 552 1135 600 1083 q 464 1243 504 1186 l 371 1211 q 610 1013 456 1099 l 658 1035 m 807 114 l 786 136 l 742 103 q 700 239 703 140 l 689 710 q 719 824 688 769 q 750 864 731 842 q 797 913 769 886 l 794 915 q 638 815 707 894 q 358 907 504 907 q 118 810 214 907 q 22 593 22 711 l 25 563 q 172 321 36 447 l 49 138 q 0 22 0 64 q 31 -14 0 -14 q 64 15 64 -14 q 57 43 64 25 q 50 69 50 61 q 62 98 50 86 q 89 110 74 110 q 147 90 111 110 l 344 -14 l 547 138 q 649 -17 572 31 l 807 114 m 543 393 l 269 393 l 504 739 l 515 739 l 543 699 l 543 393 m 475 765 l 442 715 q 363 724 406 724 q 253 690 294 724 q 207 588 207 653 q 290 647 239 642 l 313 650 q 374 617 353 650 l 189 346 q 67 564 67 443 q 144 735 67 668 q 324 799 217 799 q 475 765 396 799 m 549 185 l 432 90 l 149 221 l 200 296 l 549 296 l 549 185 z "},"Á":{"ha":849,"x_min":0,"x_max":807,"o":"m 681 1211 l 585 1243 q 496 1133 544 1185 q 392 1035 447 1081 l 440 1013 q 581 1109 521 1060 q 681 1211 640 1158 m 807 114 l 786 136 l 742 103 q 700 239 703 140 l 689 710 q 719 824 688 769 q 750 864 731 842 q 797 913 769 886 l 794 915 q 638 815 707 894 q 358 907 504 907 q 118 810 214 907 q 22 593 22 711 l 25 563 q 172 321 36 447 l 49 138 q 0 22 0 64 q 31 -14 0 -14 q 64 15 64 -14 q 57 43 64 25 q 50 69 50 61 q 62 98 50 86 q 89 110 74 110 q 147 90 111 110 l 344 -14 l 547 138 q 649 -17 572 31 l 807 114 m 543 393 l 269 393 l 504 739 l 515 739 l 543 699 l 543 393 m 475 765 l 442 715 q 363 724 406 724 q 253 690 294 724 q 207 588 207 653 q 290 647 239 642 l 313 650 q 374 617 353 650 l 189 346 q 67 564 67 443 q 144 735 67 668 q 324 799 217 799 q 475 765 396 799 m 549 185 l 432 90 l 149 221 l 200 296 l 549 296 l 549 185 z "},"Â":{"ha":849,"x_min":0,"x_max":807,"o":"m 711 1029 q 564 1243 622 1139 l 494 1243 q 344 1029 435 1136 l 363 1013 q 528 1154 465 1074 q 690 1014 604 1061 l 711 1029 m 807 114 l 786 136 l 742 103 q 700 239 703 140 l 689 710 q 719 824 688 769 q 750 864 731 842 q 797 913 769 886 l 794 915 q 638 815 707 894 q 358 907 504 907 q 118 810 214 907 q 22 593 22 711 l 25 563 q 172 321 36 447 l 49 138 q 0 22 0 64 q 31 -14 0 -14 q 64 15 64 -14 q 57 43 64 25 q 50 69 50 61 q 62 98 50 86 q 89 110 74 110 q 147 90 111 110 l 344 -14 l 547 138 q 649 -17 572 31 l 807 114 m 543 393 l 269 393 l 504 739 l 515 739 l 543 699 l 543 393 m 475 765 l 442 715 q 363 724 406 724 q 253 690 294 724 q 207 588 207 653 q 290 647 239 642 l 313 650 q 374 617 353 650 l 189 346 q 67 564 67 443 q 144 735 67 668 q 324 799 217 799 q 475 765 396 799 m 549 185 l 432 90 l 149 221 l 200 296 l 549 296 l 549 185 z "},"Ã":{"ha":849,"x_min":0,"x_max":807,"o":"m 683 1182 l 658 1189 l 639 1156 q 599 1147 597 1147 q 478 1175 581 1147 q 406 1186 436 1186 q 335 1147 361 1186 q 316 1110 325 1128 q 297 1074 307 1092 l 319 1065 l 342 1106 l 365 1106 q 497 1078 389 1106 q 538 1069 519 1072 q 574 1067 557 1067 q 646 1106 619 1067 q 683 1182 654 1118 m 807 114 l 786 136 l 742 103 q 700 239 703 140 l 689 710 q 719 824 688 769 q 750 864 731 842 q 797 913 769 886 l 794 915 q 638 815 707 894 q 358 907 504 907 q 118 810 214 907 q 22 593 22 711 l 25 563 q 172 321 36 447 l 49 138 q 0 22 0 64 q 31 -14 0 -14 q 64 15 64 -14 q 57 43 64 25 q 50 69 50 61 q 62 98 50 86 q 89 110 74 110 q 147 90 111 110 l 344 -14 l 547 138 q 649 -17 572 31 l 807 114 m 543 393 l 269 393 l 504 739 l 515 739 l 543 699 l 543 393 m 475 765 l 442 715 q 363 724 406 724 q 253 690 294 724 q 207 588 207 653 q 290 647 239 642 l 313 650 q 374 617 353 650 l 189 346 q 67 564 67 443 q 144 735 67 668 q 324 799 217 799 q 475 765 396 799 m 549 185 l 432 90 l 149 221 l 200 296 l 549 296 l 549 185 z "},"Ä":{"ha":849,"x_min":0,"x_max":807,"o":"m 668 1119 l 576 1193 q 482 1149 524 1164 l 482 999 q 463 958 482 974 q 560 929 511 950 l 608 957 q 638 973 625 967 q 660 985 650 979 l 650 993 l 604 969 l 549 990 l 549 1047 q 622 1094 619 1092 q 668 1119 632 1100 m 807 114 l 786 136 l 742 103 q 700 239 703 140 l 689 710 q 719 824 688 769 q 750 864 731 842 q 797 913 769 886 l 794 915 q 638 815 707 894 q 358 907 504 907 q 118 810 214 907 q 22 593 22 711 l 25 563 q 172 321 36 447 l 49 138 q 0 22 0 64 q 31 -14 0 -14 q 64 15 64 -14 q 57 43 64 25 q 50 69 50 61 q 62 98 50 86 q 89 110 74 110 q 147 90 111 110 l 344 -14 l 547 138 q 649 -17 572 31 l 807 114 m 608 1101 l 549 1064 l 549 1151 l 608 1101 m 543 393 l 269 393 l 504 739 l 515 739 l 543 699 l 543 393 m 475 765 l 442 715 q 363 724 406 724 q 253 690 294 724 q 207 588 207 653 q 290 647 239 642 l 313 650 q 374 617 353 650 l 189 346 q 67 564 67 443 q 144 735 67 668 q 324 799 217 799 q 475 765 396 799 m 549 185 l 432 90 l 149 221 l 200 296 l 549 296 l 549 185 z "},"Å":{"ha":849,"x_min":0,"x_max":807,"o":"m 711 1092 q 665 1211 711 1167 q 543 1256 618 1256 q 422 1212 468 1256 q 376 1093 376 1168 q 422 972 376 1018 q 543 925 468 925 q 665 971 618 925 q 711 1092 711 1017 m 807 114 l 786 136 l 742 103 q 700 239 703 140 l 689 710 q 719 824 688 769 q 750 864 731 842 q 797 913 769 886 l 794 915 q 638 815 707 894 q 358 907 504 907 q 118 810 214 907 q 22 593 22 711 l 25 563 q 172 321 36 447 l 49 138 q 0 22 0 64 q 31 -14 0 -14 q 64 15 64 -14 q 57 43 64 25 q 50 69 50 61 q 62 98 50 86 q 89 110 74 110 q 147 90 111 110 l 344 -14 l 547 138 q 649 -17 572 31 l 807 114 m 647 1092 q 618 1016 647 1046 q 543 986 589 986 q 467 1015 496 986 q 438 1092 438 1044 q 467 1167 438 1139 q 543 1194 496 1194 q 618 1166 589 1194 q 647 1092 647 1138 m 543 393 l 269 393 l 504 739 l 515 739 l 543 699 l 543 393 m 475 765 l 442 715 q 363 724 406 724 q 253 690 294 724 q 207 588 207 653 q 290 647 239 642 l 313 650 q 374 617 353 650 l 189 346 q 67 564 67 443 q 144 735 67 668 q 324 799 217 799 q 475 765 396 799 m 549 185 l 432 90 l 149 221 l 200 296 l 549 296 l 549 185 z "},"Æ":{"ha":1271,"x_min":3,"x_max":1235,"o":"m 1235 221 l 1229 226 q 1160 171 1193 194 q 1099 133 1128 147 q 943 103 1033 103 l 943 490 l 1128 490 l 1194 633 l 1067 633 l 1228 839 l 1215 838 q 972 911 1063 838 l 736 678 l 736 343 q 704 242 736 278 q 638 594 638 368 q 668 778 638 711 q 794 911 703 856 l 793 915 q 599 815 683 915 q 335 913 454 913 q 135 832 228 913 q 33 601 33 743 q 44 525 33 567 q 171 315 76 414 l 53 140 q 3 22 3 67 q 32 -14 3 -14 q 67 15 67 -14 q 61 38 67 25 q 51 72 51 63 q 62 98 51 85 q 92 111 72 111 q 151 92 115 111 l 347 -14 l 583 169 q 903 -18 701 -18 q 1235 221 1121 -18 m 1085 700 l 943 510 l 943 763 l 1085 700 m 914 106 q 718 218 774 131 q 854 467 854 333 l 854 733 l 914 803 l 914 106 m 528 679 q 508 572 514 621 q 504 483 503 524 l 507 397 l 268 397 l 493 726 q 514 699 506 711 q 528 679 522 686 m 465 754 l 443 721 q 365 729 418 729 q 254 696 296 729 q 208 593 208 660 q 319 658 257 658 q 376 622 360 658 l 185 342 q 79 571 79 456 q 142 736 79 667 q 301 806 204 806 q 465 754 383 806 m 568 200 l 435 93 l 149 224 l 203 303 l 529 303 q 568 200 544 238 z "},"Ç":{"ha":819,"x_min":0,"x_max":786,"o":"m 786 229 l 779 231 q 710 179 735 197 q 682 158 686 161 q 513 104 600 104 q 479 108 501 104 q 446 111 457 111 l 446 769 q 544 735 496 753 q 636 700 592 718 l 756 831 q 483 910 614 831 l 214 682 l 214 351 q 194 246 214 282 q 110 483 110 357 q 278 824 110 685 q 71 656 147 781 q 0 394 0 539 q 57 171 0 269 q 356 -11 151 13 l 356 -51 q 350 -94 356 -72 q 433 -103 406 -94 q 493 -154 481 -117 l 493 -164 q 463 -221 493 -196 l 292 -189 l 267 -251 l 489 -292 q 568 -167 568 -229 q 506 -78 568 -110 q 393 -54 456 -54 l 392 -14 l 410 -14 q 458 -12 435 -14 q 501 -7 481 -10 q 786 229 682 22 m 413 115 q 213 232 285 146 q 315 342 288 299 q 353 482 353 401 l 353 743 l 413 792 l 413 115 z "},"È":{"ha":819,"x_min":0,"x_max":786,"o":"m 546 1035 q 441 1133 490 1081 q 349 1243 392 1185 l 257 1211 q 494 1013 339 1099 l 546 1035 m 786 229 l 779 231 q 497 106 621 106 l 446 111 l 447 490 l 665 490 l 733 633 l 586 633 l 776 839 l 760 838 q 608 854 700 832 q 479 910 536 871 l 214 682 l 214 351 q 194 246 214 282 q 108 482 108 357 q 155 669 108 578 q 278 824 201 761 q 71 656 147 781 q 0 394 0 539 q 57 171 0 272 q 208 31 108 82 q 410 -14 301 -14 q 458 -12 435 -14 q 501 -7 481 -10 q 786 229 682 22 m 607 700 l 446 525 l 446 765 l 607 700 m 413 115 q 214 232 286 149 q 314 340 285 292 q 353 482 353 401 l 353 743 l 413 792 l 413 115 z "},"É":{"ha":819,"x_min":0,"x_max":786,"o":"m 608 1211 l 514 1243 q 422 1133 471 1185 q 321 1035 374 1081 l 369 1013 q 608 1211 524 1099 m 786 229 l 779 231 q 497 106 621 106 l 446 111 l 447 490 l 665 490 l 733 633 l 586 633 l 776 839 l 760 838 q 608 854 700 832 q 479 910 536 871 l 214 682 l 214 351 q 194 246 214 282 q 108 482 108 357 q 155 669 108 578 q 278 824 201 761 q 71 656 147 781 q 0 394 0 539 q 57 171 0 272 q 208 31 108 82 q 410 -14 301 -14 q 458 -12 435 -14 q 501 -7 481 -10 q 786 229 682 22 m 607 700 l 446 525 l 446 765 l 607 700 m 413 115 q 214 232 286 149 q 314 340 285 292 q 353 482 353 401 l 353 743 l 413 792 l 413 115 z "},"Ê":{"ha":819,"x_min":0,"x_max":786,"o":"m 601 1029 q 524 1131 561 1078 q 453 1243 488 1185 l 386 1243 q 236 1029 317 1126 l 254 1014 q 421 1154 353 1071 q 493 1075 453 1110 q 582 1014 533 1040 l 601 1029 m 786 229 l 779 231 q 497 106 621 106 l 446 111 l 447 490 l 665 490 l 733 633 l 586 633 l 776 839 l 760 838 q 608 854 700 832 q 479 910 536 871 l 214 682 l 214 351 q 194 246 214 282 q 108 482 108 357 q 155 669 108 578 q 278 824 201 761 q 71 656 147 781 q 0 394 0 539 q 57 171 0 272 q 208 31 108 82 q 410 -14 301 -14 q 458 -12 435 -14 q 501 -7 481 -10 q 786 229 682 22 m 607 700 l 446 525 l 446 765 l 607 700 m 413 115 q 214 232 286 149 q 314 340 285 292 q 353 482 353 401 l 353 743 l 413 792 l 413 115 z "},"Ë":{"ha":819,"x_min":0,"x_max":786,"o":"m 615 1126 q 595 1145 606 1135 q 574 1169 585 1156 q 557 1188 567 1176 q 535 1214 547 1199 l 450 1131 q 475 1100 465 1111 q 488 1086 485 1089 l 529 1044 l 615 1126 m 382 1126 q 334 1176 354 1154 q 300 1214 314 1199 l 214 1131 q 239 1100 229 1111 q 251 1086 249 1089 l 293 1044 l 382 1126 m 786 229 l 779 231 q 497 106 621 106 l 446 111 l 447 490 l 665 490 l 733 633 l 586 633 l 776 839 l 760 838 q 608 854 700 832 q 479 910 536 871 l 214 682 l 214 351 q 194 246 214 282 q 108 482 108 357 q 155 669 108 578 q 278 824 201 761 q 71 656 147 781 q 0 394 0 539 q 57 171 0 272 q 208 31 108 82 q 410 -14 301 -14 q 458 -12 435 -14 q 501 -7 481 -10 q 786 229 682 22 m 607 700 l 446 525 l 446 765 l 607 700 m 413 115 q 214 232 286 149 q 314 340 285 292 q 353 482 353 401 l 353 743 l 413 792 l 413 115 z "},"Ì":{"ha":697,"x_min":0,"x_max":650,"o":"m 533 1035 q 338 1243 422 1128 l 246 1211 q 483 1013 328 1099 l 533 1035 m 650 901 l 650 911 q 446 629 446 911 q 456 499 446 583 q 485 293 465 415 q 486 265 485 282 q 490 225 488 249 q 494 185 493 201 q 496 157 496 168 q 481 76 496 107 q 429 39 467 46 l 414 36 q 254 138 342 36 q 401 293 401 138 q 376 501 401 315 q 369 571 371 538 q 367 636 367 604 q 482 908 367 814 l 481 913 q 369 893 400 893 q 283 906 358 893 q 250 910 267 908 q 215 911 233 911 l 206 911 q 101 869 143 911 q 44 765 58 828 l 53 764 q 131 828 83 828 l 139 828 q 200 819 160 828 q 236 815 221 817 q 261 813 251 813 q 369 843 304 813 q 281 711 303 765 q 247 554 257 654 q 137 524 185 554 q 74 436 89 494 q 181 461 142 461 q 247 439 225 461 q 293 282 293 397 q 283 199 293 236 q 193 158 265 157 l 163 160 l 132 158 q 35 99 69 149 q 0 -15 0 49 l 3 -17 q 108 53 43 53 q 263 10 143 53 q 382 -14 336 -14 l 397 -14 q 576 108 514 -14 q 615 300 615 185 q 607 405 615 332 q 581 596 599 478 q 570 695 574 654 q 565 760 567 736 l 564 783 q 582 861 561 833 q 650 901 600 885 z "},"Í":{"ha":697,"x_min":0,"x_max":650,"o":"m 596 1211 l 503 1243 q 411 1133 460 1185 q 310 1035 363 1081 l 358 1013 q 596 1211 513 1099 m 650 901 l 650 911 q 446 629 446 911 q 456 499 446 583 q 485 293 465 415 q 486 265 485 282 q 490 225 488 249 q 494 185 493 201 q 496 157 496 168 q 481 76 496 107 q 429 39 467 46 l 414 36 q 254 138 342 36 q 401 293 401 138 q 376 501 401 315 q 369 571 371 538 q 367 636 367 604 q 482 908 367 814 l 481 913 q 369 893 400 893 q 283 906 358 893 q 250 910 267 908 q 215 911 233 911 l 206 911 q 101 869 143 911 q 44 765 58 828 l 53 764 q 131 828 83 828 l 139 828 q 200 819 160 828 q 236 815 221 817 q 261 813 251 813 q 369 843 304 813 q 281 711 303 765 q 247 554 257 654 q 137 524 185 554 q 74 436 89 494 q 181 461 142 461 q 247 439 225 461 q 293 282 293 397 q 283 199 293 236 q 193 158 265 157 l 163 160 l 132 158 q 35 99 69 149 q 0 -15 0 49 l 3 -17 q 108 53 43 53 q 263 10 143 53 q 382 -14 336 -14 l 397 -14 q 576 108 514 -14 q 615 300 615 185 q 607 405 615 332 q 581 596 599 478 q 570 695 574 654 q 565 760 567 736 l 564 783 q 582 861 561 833 q 650 901 600 885 z "},"Î":{"ha":697,"x_min":0,"x_max":650,"o":"m 590 1029 q 442 1243 503 1135 l 372 1243 q 225 1029 319 1149 l 243 1014 q 410 1154 342 1071 q 568 1014 478 1064 l 590 1029 m 650 901 l 650 911 q 446 629 446 911 q 456 499 446 583 q 485 293 465 415 q 486 265 485 282 q 490 225 488 249 q 494 185 493 201 q 496 157 496 168 q 481 76 496 107 q 429 39 467 46 l 414 36 q 254 138 342 36 q 401 293 401 138 q 376 501 401 315 q 369 571 371 538 q 367 636 367 604 q 482 908 367 814 l 481 913 q 369 893 400 893 q 283 906 358 893 q 250 910 267 908 q 215 911 233 911 l 206 911 q 101 869 143 911 q 44 765 58 828 l 53 764 q 131 828 83 828 l 139 828 q 200 819 160 828 q 236 815 221 817 q 261 813 251 813 q 369 843 304 813 q 281 711 303 765 q 247 554 257 654 q 137 524 185 554 q 74 436 89 494 q 181 461 142 461 q 247 439 225 461 q 293 282 293 397 q 283 199 293 236 q 193 158 265 157 l 163 160 l 132 158 q 35 99 69 149 q 0 -15 0 49 l 3 -17 q 108 53 43 53 q 263 10 143 53 q 382 -14 336 -14 l 397 -14 q 576 108 514 -14 q 615 300 615 185 q 607 405 615 332 q 581 596 599 478 q 570 695 574 654 q 565 760 567 736 l 564 783 q 582 861 561 833 q 650 901 600 885 z "},"Ï":{"ha":697,"x_min":0,"x_max":650,"o":"m 606 1126 q 558 1176 578 1154 q 524 1214 538 1199 l 438 1131 l 517 1044 l 606 1126 m 368 1126 q 348 1145 358 1135 q 326 1169 338 1156 q 310 1188 319 1176 q 288 1214 300 1199 l 203 1131 q 219 1110 210 1121 q 242 1086 229 1100 l 281 1044 l 368 1126 m 650 901 l 650 911 q 446 629 446 911 q 456 499 446 583 q 485 293 465 415 q 486 265 485 282 q 490 225 488 249 q 494 185 493 201 q 496 157 496 168 q 481 76 496 107 q 429 39 467 46 l 414 36 q 254 138 342 36 q 401 293 401 138 q 376 501 401 315 q 369 571 371 538 q 367 636 367 604 q 482 908 367 814 l 481 913 q 369 893 400 893 q 283 906 358 893 q 250 910 267 908 q 215 911 233 911 l 206 911 q 101 869 143 911 q 44 765 58 828 l 53 764 q 131 828 83 828 l 139 828 q 200 819 160 828 q 236 815 221 817 q 261 813 251 813 q 369 843 304 813 q 281 711 303 765 q 247 554 257 654 q 137 524 185 554 q 74 436 89 494 q 181 461 142 461 q 247 439 225 461 q 293 282 293 397 q 283 199 293 236 q 193 158 265 157 l 163 160 l 132 158 q 35 99 69 149 q 0 -15 0 49 l 3 -17 q 108 53 43 53 q 263 10 143 53 q 382 -14 336 -14 l 397 -14 q 576 108 514 -14 q 615 300 615 185 q 607 405 615 332 q 581 596 599 478 q 570 695 574 654 q 565 760 567 736 l 564 783 q 582 861 561 833 q 650 901 600 885 z "},"Ð":{"ha":644,"x_min":0,"x_max":625,"o":"m 625 842 l 493 874 q 339 771 414 804 l 339 629 l 282 629 l 271 558 l 339 558 l 339 201 q 290 97 339 117 l 200 146 l 200 771 l 326 746 l 354 842 l 222 874 q 68 771 143 804 l 68 629 l 11 629 l 0 558 l 68 558 l 68 201 q 32 97 68 133 q 217 -7 110 75 q 263 37 236 13 q 324 90 289 61 q 398 54 357 79 q 488 -7 439 29 q 549 49 518 21 q 610 104 579 76 l 593 122 l 561 97 l 471 146 l 471 771 l 597 746 l 625 842 z "},"Ñ":{"ha":1088,"x_min":-7,"x_max":1044,"o":"m 826 1182 l 803 1189 l 783 1156 l 764 1151 q 742 1147 749 1147 q 621 1175 724 1147 q 549 1186 579 1186 q 478 1149 504 1186 q 440 1074 471 1142 l 463 1065 l 485 1106 l 508 1106 q 640 1078 532 1106 q 681 1069 663 1072 q 717 1067 700 1067 q 799 1124 769 1067 q 815 1158 808 1143 q 826 1182 822 1172 m 1044 146 l 1021 161 l 997 129 q 926 140 956 136 q 876 143 896 143 q 767 125 819 143 q 985 586 985 394 q 682 911 985 815 l 346 706 l 343 592 q 246 611 274 611 q 153 574 192 611 q 343 419 310 574 q 239 446 289 446 q 153 400 183 446 l 185 403 q 344 275 303 413 q 281 282 314 282 q 183 233 221 282 l 217 233 q 332 204 279 233 q 392 108 392 169 q 366 49 392 71 q 301 28 340 28 l 278 25 q 257 26 268 25 q 235 28 246 26 q 188 33 206 31 q 165 35 171 35 l 143 35 q 54 -1 101 35 q -7 -71 25 -25 l -6 -75 q 81 -53 40 -53 q 165 -68 111 -53 q 288 -96 261 -96 l 304 -96 q 488 -8 414 -96 q 557 186 557 74 l 557 338 q 688 385 633 385 q 804 338 749 385 q 758 233 781 285 q 713 131 736 182 q 643 -83 661 6 l 651 -92 q 821 3 714 3 q 951 -15 879 3 l 1044 146 m 831 593 q 701 531 769 531 q 557 589 633 531 l 558 772 q 721 721 653 764 q 831 593 801 674 m 844 504 q 817 368 844 456 q 692 407 757 407 q 558 368 624 407 l 558 554 q 701 507 631 507 q 838 561 772 507 q 842 525 840 539 q 844 504 844 511 m 528 213 l 526 201 q 385 10 526 10 l 374 13 l 372 18 q 456 114 432 51 q 472 243 472 161 l 472 742 l 525 769 l 528 213 z "},"Ò":{"ha":940,"x_min":-4,"x_max":907,"o":"m 543 1035 q 437 1135 485 1083 q 349 1243 389 1186 l 256 1211 q 494 1013 340 1099 l 543 1035 m 907 525 q 892 621 907 571 q 729 826 851 750 q 476 913 622 896 q 360 830 414 868 q 260 760 307 792 q 148 687 203 722 q 38 619 93 651 q -4 367 -4 492 q 25 196 -4 275 q 142 43 61 101 q 324 -14 224 -14 q 696 153 504 -14 q 907 525 907 339 m 719 618 q 588 550 660 550 q 440 615 517 550 l 442 774 q 599 726 544 754 q 719 618 674 689 m 774 463 q 751 361 774 422 q 597 429 675 429 q 442 376 524 429 l 442 575 q 582 531 511 531 q 736 593 663 531 q 774 463 774 532 m 739 324 q 442 103 626 103 l 440 338 q 593 407 521 407 q 739 324 674 407 m 407 103 q 214 200 311 103 q 326 332 311 303 q 351 432 351 375 l 353 778 l 407 778 l 407 103 m 231 351 q 194 224 231 281 q 110 440 110 322 q 228 711 110 593 l 231 351 z "},"Ó":{"ha":940,"x_min":-4,"x_max":907,"o":"m 607 1211 l 511 1243 q 422 1133 471 1185 q 318 1035 374 1081 l 367 1013 q 507 1109 447 1060 q 607 1211 567 1158 m 907 525 q 892 621 907 571 q 729 826 851 750 q 476 913 622 896 q 360 830 414 868 q 260 760 307 792 q 148 687 203 722 q 38 619 93 651 q -4 367 -4 492 q 25 196 -4 275 q 142 43 61 101 q 324 -14 224 -14 q 696 153 504 -14 q 907 525 907 339 m 719 618 q 588 550 660 550 q 440 615 517 550 l 442 774 q 599 726 544 754 q 719 618 674 689 m 774 463 q 751 361 774 422 q 597 429 675 429 q 442 376 524 429 l 442 575 q 582 531 511 531 q 736 593 663 531 q 774 463 774 532 m 739 324 q 442 103 626 103 l 440 338 q 593 407 521 407 q 739 324 674 407 m 407 103 q 214 200 311 103 q 326 332 311 303 q 351 432 351 375 l 353 778 l 407 778 l 407 103 m 231 351 q 194 224 231 281 q 110 440 110 322 q 228 711 110 593 l 231 351 z "},"Ô":{"ha":940,"x_min":-4,"x_max":907,"o":"m 599 1029 q 453 1243 507 1146 l 383 1243 q 233 1029 324 1136 l 251 1013 q 417 1154 354 1074 q 579 1014 489 1064 l 599 1029 m 907 525 q 892 621 907 571 q 729 826 851 750 q 476 913 622 896 q 360 830 414 868 q 260 760 307 792 q 148 687 203 722 q 38 619 93 651 q -4 367 -4 492 q 25 196 -4 275 q 142 43 61 101 q 324 -14 224 -14 q 696 153 504 -14 q 907 525 907 339 m 719 618 q 588 550 660 550 q 440 615 517 550 l 442 774 q 599 726 544 754 q 719 618 674 689 m 774 463 q 751 361 774 422 q 597 429 675 429 q 442 376 524 429 l 442 575 q 582 531 511 531 q 736 593 663 531 q 774 463 774 532 m 739 324 q 442 103 626 103 l 440 338 q 593 407 521 407 q 739 324 674 407 m 407 103 q 214 200 311 103 q 326 332 311 303 q 351 432 351 375 l 353 778 l 407 778 l 407 103 m 231 351 q 194 224 231 281 q 110 440 110 322 q 228 711 110 593 l 231 351 z "},"Õ":{"ha":940,"x_min":-4,"x_max":907,"o":"m 610 1182 l 585 1189 l 565 1156 q 525 1147 524 1147 q 403 1175 506 1147 q 332 1186 361 1186 q 261 1147 288 1186 q 242 1110 251 1128 q 224 1074 233 1092 l 246 1065 l 268 1106 l 290 1106 q 422 1078 314 1106 q 463 1069 444 1072 q 499 1067 482 1067 q 571 1106 544 1067 q 583 1128 574 1108 q 610 1182 592 1147 m 907 525 q 892 621 907 571 q 729 826 851 750 q 476 913 622 896 q 360 830 414 868 q 260 760 307 792 q 148 687 203 722 q 38 619 93 651 q -4 367 -4 492 q 25 196 -4 275 q 142 43 61 101 q 324 -14 224 -14 q 696 153 504 -14 q 907 525 907 339 m 719 618 q 588 550 660 550 q 440 615 517 550 l 442 774 q 599 726 544 754 q 719 618 674 689 m 774 463 q 751 361 774 422 q 597 429 675 429 q 442 376 524 429 l 442 575 q 582 531 511 531 q 736 593 663 531 q 774 463 774 532 m 739 324 q 442 103 626 103 l 440 338 q 593 407 521 407 q 739 324 674 407 m 407 103 q 214 200 311 103 q 326 332 311 303 q 351 432 351 375 l 353 778 l 407 778 l 407 103 m 231 351 q 194 224 231 281 q 110 440 110 322 q 228 711 110 593 l 231 351 z "},"Ö":{"ha":940,"x_min":-4,"x_max":907,"o":"m 640 1119 l 549 1193 q 454 1149 496 1164 l 454 999 q 435 958 454 974 q 532 929 483 950 l 581 957 q 610 973 597 967 q 632 985 622 979 l 622 993 l 576 969 l 521 990 l 521 1047 q 594 1094 592 1092 q 640 1119 604 1100 m 907 525 q 892 621 907 571 q 729 826 851 750 q 476 913 622 896 q 360 830 414 868 q 260 760 307 792 q 148 687 203 722 q 38 619 93 651 q -4 367 -4 492 q 25 196 -4 275 q 142 43 61 101 q 324 -14 224 -14 q 696 153 504 -14 q 907 525 907 339 m 581 1101 l 521 1064 l 521 1151 l 581 1101 m 719 618 q 588 550 660 550 q 440 615 517 550 l 440 774 q 719 618 644 736 m 774 463 q 751 361 774 422 q 597 429 675 429 q 442 376 524 429 l 442 575 q 582 531 511 531 q 736 593 663 531 q 774 463 774 532 m 739 324 q 440 103 624 103 l 440 338 q 593 407 521 407 q 739 324 674 407 m 407 103 q 214 200 311 103 q 326 332 311 303 q 351 432 351 375 l 351 778 l 407 778 l 407 103 m 231 351 q 194 224 231 281 q 110 440 110 322 q 231 711 110 588 l 231 351 z "},"×":{"ha":671,"x_min":89,"x_max":589,"o":"m 589 240 l 406 422 l 582 600 l 517 665 l 340 489 l 157 671 l 89 604 l 272 421 l 94 243 l 160 178 l 338 356 l 521 172 l 589 240 z "},"Ø":{"ha":997,"x_min":4,"x_max":963,"o":"m 963 524 q 807 817 963 675 l 915 942 l 844 942 l 757 844 q 533 913 671 893 q 418 830 471 868 q 318 760 365 792 q 204 686 260 721 q 96 619 149 651 q 49 363 49 486 q 126 113 49 211 l 4 -33 l 65 -33 l 165 74 q 379 -14 258 -14 q 613 56 486 -14 q 808 207 722 117 q 963 524 963 367 m 778 618 q 643 553 721 553 q 616 558 629 556 q 589 563 603 560 l 706 699 q 749 656 731 676 q 778 618 767 636 m 664 728 l 496 532 l 497 774 q 664 728 593 758 m 832 463 q 810 361 832 422 q 653 429 733 429 q 497 376 579 429 l 496 460 l 569 543 q 644 532 611 532 q 792 592 728 532 q 832 463 832 528 m 469 504 l 394 417 l 396 774 l 468 778 l 469 504 m 794 324 q 676 169 749 226 q 497 103 594 103 l 496 338 q 649 407 578 407 q 794 324 732 407 m 289 369 q 235 242 289 301 q 171 454 171 347 q 286 711 171 600 l 289 369 m 468 103 q 268 200 365 103 l 467 421 l 468 103 z "},"Ù":{"ha":1028,"x_min":-7,"x_max":996,"o":"m 693 1035 q 497 1243 589 1124 l 407 1211 q 644 1013 493 1096 l 693 1035 m 996 107 l 982 126 l 936 88 q 911 182 911 118 l 911 736 q 968 875 911 806 l 957 882 l 890 826 l 764 910 l 626 749 l 644 733 l 690 786 l 753 743 l 753 576 q 651 546 701 546 q 544 576 601 546 l 544 911 l 513 911 q 406 876 469 876 q 296 893 368 876 q 185 911 225 911 q 35 833 88 911 q -7 663 -7 767 l 4 667 q 165 801 56 790 l 197 801 q 217 801 206 801 q 243 799 229 800 q 269 798 257 799 q 289 797 281 797 q 335 802 307 797 q 404 817 364 807 l 406 811 q 294 747 343 779 q 210 679 246 714 q 83 482 124 597 q 57 343 57 408 q 138 110 57 215 q 410 -14 233 -14 q 454 -12 432 -14 q 499 -4 476 -10 q 751 156 621 21 q 844 -15 772 50 l 872 -15 l 996 107 m 751 399 q 649 422 697 422 q 546 399 597 422 l 546 546 q 649 521 601 521 q 751 546 694 521 l 751 399 m 753 196 q 546 118 651 128 l 544 371 q 651 400 604 400 q 753 371 694 400 l 753 196 m 514 115 q 300 182 383 115 q 457 447 457 282 l 457 732 q 513 867 457 811 l 514 115 m 447 811 q 333 574 333 697 l 335 344 q 281 199 335 253 q 201 425 201 299 q 206 471 201 433 q 206 483 206 476 q 208 497 207 489 q 447 811 239 693 z "},"Ú":{"ha":1028,"x_min":-7,"x_max":996,"o":"m 758 1211 l 664 1243 q 569 1131 617 1183 q 469 1035 521 1079 l 518 1013 q 758 1211 676 1103 m 996 107 l 982 126 l 936 88 q 911 182 911 118 l 911 736 q 968 875 911 806 l 957 882 l 890 826 l 764 910 l 626 749 l 644 733 l 690 786 l 753 743 l 753 576 q 651 546 701 546 q 544 576 601 546 l 544 911 l 513 911 q 406 876 469 876 q 296 893 368 876 q 185 911 225 911 q 35 833 88 911 q -7 663 -7 767 l 4 667 q 165 801 56 790 l 197 801 q 217 801 206 801 q 243 799 229 800 q 269 798 257 799 q 289 797 281 797 q 335 802 307 797 q 404 817 364 807 l 406 811 q 294 747 343 779 q 210 679 246 714 q 83 482 124 597 q 57 343 57 408 q 138 110 57 215 q 410 -14 233 -14 q 454 -12 432 -14 q 499 -4 476 -10 q 751 156 621 21 q 844 -15 772 50 l 872 -15 l 996 107 m 751 399 q 649 422 697 422 q 546 399 597 422 l 546 546 q 649 521 601 521 q 751 546 694 521 l 751 399 m 753 196 q 546 118 651 128 l 544 371 q 651 400 604 400 q 753 371 694 400 l 753 196 m 514 115 q 300 182 383 115 q 457 447 457 282 l 457 732 q 513 867 457 811 l 514 115 m 447 811 q 333 574 333 697 l 335 344 q 281 199 335 253 q 201 425 201 299 q 206 471 201 433 q 206 483 206 476 q 208 497 207 489 q 447 811 239 693 z "},"Û":{"ha":1028,"x_min":-7,"x_max":996,"o":"m 751 1029 q 601 1243 664 1135 l 533 1243 q 386 1029 481 1149 l 404 1014 q 569 1154 507 1076 q 729 1014 635 1067 l 751 1029 m 996 107 l 982 126 l 936 88 q 911 182 911 118 l 911 736 q 968 875 911 806 l 957 882 l 890 826 l 764 910 l 626 749 l 644 733 l 690 786 l 753 743 l 753 576 q 651 546 701 546 q 544 576 601 546 l 544 911 l 513 911 q 406 876 469 876 q 296 893 368 876 q 185 911 225 911 q 35 833 88 911 q -7 663 -7 767 l 4 667 q 165 801 56 790 l 197 801 q 217 801 206 801 q 243 799 229 800 q 269 798 257 799 q 289 797 281 797 q 335 802 307 797 q 404 817 364 807 l 406 811 q 294 747 343 779 q 210 679 246 714 q 83 482 124 597 q 57 343 57 408 q 138 110 57 215 q 410 -14 233 -14 q 454 -12 432 -14 q 499 -4 476 -10 q 751 156 621 21 q 844 -15 772 50 l 872 -15 l 996 107 m 751 399 q 649 422 697 422 q 546 399 597 422 l 546 546 q 649 521 601 521 q 751 546 694 521 l 751 399 m 753 196 q 546 118 651 128 l 544 371 q 651 400 604 400 q 753 371 694 400 l 753 196 m 514 115 q 300 182 383 115 q 457 447 457 282 l 457 732 q 513 867 457 811 l 514 115 m 447 811 q 333 574 333 697 l 335 344 q 281 199 335 253 q 201 425 201 299 q 206 471 201 433 q 206 483 206 476 q 208 497 207 489 q 447 811 239 693 z "},"Ü":{"ha":1028,"x_min":-7,"x_max":996,"o":"m 710 1119 l 618 1193 q 524 1149 565 1164 l 524 999 q 504 958 524 974 q 601 929 553 950 l 650 957 q 679 973 667 967 q 701 985 692 979 l 692 993 l 646 969 l 590 990 l 590 1047 q 664 1094 661 1092 q 710 1119 674 1100 m 996 107 l 982 126 l 936 88 q 911 182 911 118 l 911 736 q 968 875 911 806 l 957 882 l 890 826 l 764 910 l 626 749 l 644 733 l 690 786 l 753 743 l 753 576 q 651 546 701 546 q 544 576 601 546 l 544 911 l 513 911 q 406 876 469 876 q 296 893 368 876 q 185 911 225 911 q 35 833 88 911 q -7 663 -7 767 l 4 667 q 165 801 56 790 l 197 801 q 217 801 206 801 q 243 799 229 800 q 269 798 257 799 q 289 797 281 797 q 335 802 307 797 q 404 817 364 807 l 406 811 q 294 747 343 779 q 210 679 246 714 q 83 482 124 597 q 57 343 57 408 q 138 110 57 215 q 410 -14 233 -14 q 454 -12 432 -14 q 499 -4 476 -10 q 751 156 621 21 q 844 -15 772 50 l 872 -15 l 996 107 m 650 1101 l 590 1064 l 590 1151 l 650 1101 m 751 399 q 649 422 697 422 q 546 399 597 422 l 546 546 q 649 521 601 521 q 751 546 694 521 l 751 399 m 753 196 q 546 118 651 128 l 544 371 q 651 400 604 400 q 753 371 694 400 l 753 196 m 514 115 q 300 182 383 115 q 457 447 457 282 l 457 732 q 514 867 457 810 l 514 115 m 447 811 q 333 574 333 697 l 335 344 q 281 199 335 253 q 201 425 201 299 q 206 471 201 433 q 206 483 206 476 q 208 497 207 489 q 447 811 239 693 z "},"Ý":{"ha":879,"x_min":3,"x_max":853,"o":"m 853 539 q 851 590 853 563 q 843 649 849 617 q 765 810 829 744 q 603 878 699 878 q 353 775 497 878 q 287 871 335 835 q 176 907 239 907 q 65 878 125 907 l 65 871 l 72 871 q 179 834 149 871 q 207 718 210 797 l 204 621 q 113 635 168 635 q 61 625 82 635 q 169 551 140 589 q 207 428 207 506 l 204 413 q 88 438 154 438 l 57 438 l 57 432 q 129 386 97 414 q 185 322 161 358 q 207 221 208 281 l 206 175 q 65 131 122 175 q 3 0 3 82 q 60 -135 3 -78 q 196 -192 117 -192 q 304 -167 251 -192 q 430 -104 376 -131 q 519 -58 483 -78 q 547 -50 536 -50 q 565 -60 564 -50 q 571 -72 569 -64 q 556 -111 571 -83 l 550 -135 q 583 -185 550 -175 l 606 -189 q 654 -126 654 -189 q 631 -62 654 -90 q 514 -14 586 -14 q 356 -53 463 -14 q 278 -83 317 -68 q 200 -112 239 -97 l 161 -114 q 66 -83 103 -115 q 29 3 29 -51 q 100 115 29 79 q 239 144 156 144 l 475 144 q 757 251 657 144 q 853 539 853 356 m 683 621 q 558 568 611 568 q 440 615 501 568 l 440 789 q 524 808 492 808 q 683 621 651 808 m 694 497 q 686 396 694 467 q 553 438 617 438 q 442 404 493 438 l 442 579 q 553 546 496 546 q 688 594 618 546 q 691 546 688 578 q 694 497 694 514 m 679 368 q 589 206 651 260 q 460 169 546 169 l 440 169 l 440 375 q 556 415 497 415 q 679 368 618 415 m 410 169 l 347 169 l 347 743 l 410 772 l 410 169 m 731 1211 l 636 1243 q 541 1131 589 1183 q 442 1035 493 1079 l 490 1013 q 731 1211 649 1103 z "},"Þ":{"ha":811,"x_min":8,"x_max":765,"o":"m 765 144 l 765 483 q 674 646 765 585 l 479 503 l 479 749 q 539 875 479 824 q 406 806 467 875 l 385 804 q 299 850 350 831 l 296 847 q 343 708 343 804 l 343 569 l 217 649 q 135 586 178 614 q 46 539 93 558 l 46 185 q 8 86 46 119 q 200 -3 100 67 q 254 35 222 11 l 306 74 l 407 -8 l 513 83 l 476 124 l 476 467 l 586 549 q 639 483 631 521 l 639 94 q 565 -60 639 -6 q 503 -94 546 -74 q 393 -140 461 -114 l 397 -149 q 636 -58 542 -121 q 765 144 765 22 m 343 128 l 294 92 l 172 153 l 172 547 l 297 476 l 343 542 l 343 128 z "},"ß":{"ha":647,"x_min":0,"x_max":608,"o":"m 608 208 l 608 238 q 550 364 608 318 q 415 408 497 408 l 567 556 q 489 592 529 560 q 451 625 467 611 q 425 649 436 639 l 203 499 l 201 771 l 326 746 l 354 842 l 222 874 q 71 771 140 801 l 68 629 l 11 626 l 0 560 l 68 558 l 71 201 q 32 97 71 136 q 217 -7 110 75 q 278 49 247 21 q 339 104 308 76 l 322 122 l 290 97 l 200 146 l 200 471 l 343 564 l 442 474 l 264 301 q 331 310 308 307 q 357 313 354 313 q 411 303 383 313 q 478 200 478 279 q 453 107 478 149 q 376 37 408 67 q 322 -12 344 7 q 288 -89 288 -43 q 321 -153 288 -126 q 392 -182 356 -182 q 425 -161 425 -182 l 425 -154 q 408 -143 425 -143 q 386 -147 401 -143 q 364 -150 371 -150 q 310 -97 310 -150 q 340 -32 310 -53 q 424 12 389 -7 q 483 44 460 31 q 608 208 586 106 z "},"à":{"ha":550,"x_min":4,"x_max":507,"o":"m 399 750 q 190 954 269 851 l 99 924 q 347 729 186 815 l 399 750 m 507 96 l 492 108 l 467 96 q 428 139 438 104 l 428 503 q 475 610 442 558 l 472 615 l 433 585 l 236 650 q 93 596 171 589 l 75 597 l 142 424 q 4 172 4 300 q 103 -6 4 86 l 110 -6 l 299 146 q 388 -4 299 43 l 507 96 m 300 510 l 299 357 l 156 426 l 97 585 l 300 510 m 301 182 l 196 93 q 115 268 115 174 q 156 404 115 332 l 300 332 l 301 182 z "},"á":{"ha":550,"x_min":4,"x_max":507,"o":"m 465 924 l 368 954 q 165 750 290 856 l 214 729 q 358 820 294 772 q 465 924 421 868 m 507 96 l 492 108 l 467 96 q 428 139 438 104 l 428 503 q 475 610 442 558 l 472 615 l 433 585 l 236 650 q 93 596 171 589 l 75 597 l 142 424 q 4 172 4 300 q 103 -6 4 86 l 110 -6 l 299 146 q 388 -4 299 43 l 507 96 m 300 510 l 299 357 l 156 426 l 97 585 l 300 510 m 301 182 l 196 93 q 115 268 115 174 q 156 404 115 332 l 300 332 l 301 182 z "},"â":{"ha":550,"x_min":4,"x_max":507,"o":"m 458 744 q 300 953 376 832 l 229 953 q 76 744 154 832 l 93 732 q 268 869 203 792 q 438 732 332 786 l 458 744 m 507 96 l 492 108 l 467 96 q 428 139 438 104 l 428 503 q 475 610 442 558 l 472 615 l 433 585 l 236 650 q 93 596 171 589 l 75 597 l 142 424 q 4 172 4 300 q 103 -6 4 86 l 110 -6 l 299 146 q 388 -4 299 43 l 507 96 m 300 510 l 299 357 l 156 426 l 97 585 l 300 510 m 301 182 l 196 93 q 115 268 115 174 q 156 404 115 332 l 300 332 l 301 182 z "},"ã":{"ha":550,"x_min":4,"x_max":507,"o":"m 469 893 l 446 901 l 425 868 q 382 858 388 858 q 279 879 347 858 q 176 900 210 900 q 103 861 129 900 q 64 789 99 857 l 82 782 l 107 821 l 133 821 q 180 814 146 821 q 272 793 214 807 q 354 782 321 782 q 429 821 400 782 q 469 893 449 858 m 507 96 l 492 108 l 467 96 q 428 139 438 104 l 428 503 q 475 610 442 558 l 472 615 l 433 585 l 236 650 q 93 596 171 589 l 75 597 l 142 424 q 4 172 4 300 q 103 -6 4 86 l 110 -6 l 299 146 q 388 -4 299 43 l 507 96 m 300 510 l 299 357 l 156 426 l 97 585 l 300 510 m 301 182 l 196 93 q 115 268 115 174 q 156 404 115 332 l 300 332 l 301 182 z "},"ä":{"ha":550,"x_min":4,"x_max":507,"o":"m 396 864 l 304 938 q 210 893 251 908 l 210 743 q 190 703 210 718 q 288 674 239 694 l 336 701 q 365 717 353 711 q 388 729 378 724 l 378 738 l 332 714 l 276 735 l 276 792 q 350 839 347 836 q 396 864 360 844 m 507 96 l 492 108 l 467 96 q 428 139 438 104 l 428 503 q 475 610 442 558 l 472 615 l 433 585 l 236 650 q 93 596 171 589 l 75 597 l 142 424 q 4 172 4 300 q 103 -6 4 86 l 110 -6 l 299 146 q 388 -4 299 43 l 507 96 m 336 846 l 276 808 l 276 896 l 336 846 m 299 357 l 156 426 l 97 585 l 299 510 l 299 357 m 300 182 l 196 93 q 115 268 115 174 q 156 404 115 332 l 300 332 l 300 182 z "},"å":{"ha":550,"x_min":4,"x_max":507,"o":"m 453 869 q 401 988 453 944 q 278 1028 353 1028 q 154 988 203 1028 q 103 869 103 944 q 152 751 103 794 q 276 708 201 708 q 344 720 313 708 q 401 753 376 732 q 439 803 425 774 q 453 869 453 833 m 507 96 l 492 108 l 467 96 q 428 139 438 104 l 428 503 q 475 610 442 558 l 472 615 l 433 585 l 236 650 q 93 596 171 589 l 75 597 l 142 424 q 4 172 4 300 q 103 -6 4 86 l 110 -6 l 299 146 q 388 -4 299 43 l 507 96 m 392 869 q 359 792 392 821 q 276 764 326 764 q 199 794 231 764 q 167 869 167 824 q 199 944 167 915 q 276 972 231 972 q 358 944 324 972 q 392 869 392 915 m 300 510 l 299 357 l 156 426 l 97 585 l 300 510 m 301 182 l 196 93 q 115 268 115 174 q 156 404 115 332 l 300 332 l 301 182 z "},"æ":{"ha":711,"x_min":14,"x_max":671,"o":"m 671 471 l 494 649 q 397 596 446 615 l 246 650 q 101 596 182 590 l 83 597 l 147 421 q 14 172 14 300 q 113 -6 14 85 l 119 -6 l 308 146 q 324 57 308 99 q 393 26 360 42 q 457 -4 426 11 l 554 64 q 606 101 582 83 q 653 132 631 118 l 639 149 l 547 92 l 433 143 l 433 288 q 490 334 461 311 q 550 381 519 357 l 671 471 m 571 424 l 436 319 l 436 558 l 571 424 m 310 513 l 308 357 l 168 426 l 104 588 l 310 513 m 311 185 l 207 93 q 126 265 126 168 q 168 404 126 335 l 310 332 l 311 185 z "},"ç":{"ha":421,"x_min":8,"x_max":368,"o":"m 368 121 l 354 136 l 294 92 l 172 153 l 175 547 l 297 476 l 357 561 l 217 649 q 135 586 178 614 q 46 539 93 558 l 46 185 q 8 86 46 119 q 131 40 69 74 l 131 -17 q 122 -118 131 -67 q 274 -178 251 -118 l 274 -187 q 240 -243 274 -217 l 58 -214 l 33 -272 l 267 -311 q 350 -190 350 -251 q 282 -103 350 -133 q 164 -81 232 -81 l 163 21 l 200 -3 q 283 58 242 28 q 368 121 325 89 z "},"è":{"ha":453,"x_min":6,"x_max":411,"o":"m 339 750 q 131 954 211 851 l 39 924 q 288 729 126 815 l 339 750 m 411 469 l 232 649 q 140 589 186 617 q 44 539 93 561 l 44 168 q 6 67 44 107 q 197 -3 104 49 l 318 82 q 358 110 339 97 q 394 133 376 122 l 379 150 l 288 92 l 171 143 l 171 288 q 411 469 258 363 m 301 424 l 169 319 l 169 558 l 301 424 z "},"é":{"ha":453,"x_min":6,"x_max":411,"o":"m 404 924 l 310 954 q 106 750 228 851 l 154 729 q 404 924 321 819 m 411 469 l 232 649 q 140 589 186 617 q 44 539 93 561 l 44 168 q 6 67 44 107 q 197 -3 104 49 l 318 82 q 358 110 339 97 q 394 133 376 122 l 379 150 l 288 92 l 171 143 l 171 288 q 411 469 258 363 m 301 424 l 169 319 l 169 558 l 301 424 z "},"ê":{"ha":453,"x_min":6,"x_max":411,"o":"m 397 744 q 242 953 317 836 l 172 953 q 100 847 125 881 q 61 798 82 824 q 17 744 40 772 l 33 731 q 207 869 144 790 q 379 732 278 788 l 397 744 m 411 469 l 232 649 q 140 589 186 617 q 44 539 93 561 l 44 168 q 6 67 44 107 q 197 -3 104 49 l 318 82 q 358 110 339 97 q 394 133 376 122 l 379 150 l 288 92 l 171 143 l 171 288 q 411 469 258 363 m 301 424 l 169 319 l 169 558 l 301 424 z "},"ë":{"ha":453,"x_min":0,"x_max":422,"o":"m 422 840 q 383 878 403 857 q 339 922 363 899 l 250 844 q 268 824 258 835 q 289 803 278 814 q 306 786 296 796 q 331 763 315 776 l 422 840 m 171 840 q 131 878 151 858 q 89 922 111 899 l 0 844 l 81 763 l 171 840 m 421 469 l 242 649 q 145 588 193 615 q 50 539 97 561 l 50 168 q 14 67 50 107 q 207 -3 107 49 q 321 76 272 42 q 401 133 369 110 l 388 149 l 297 92 l 176 143 l 176 288 q 298 381 238 336 q 421 469 358 426 m 311 424 l 175 319 l 175 558 l 311 424 z "},"ì":{"ha":363,"x_min":4,"x_max":317,"o":"m 304 750 q 96 954 175 851 l 4 924 q 253 729 92 815 l 304 750 m 317 96 l 299 108 l 276 93 q 238 136 249 108 l 238 521 l 275 560 l 167 649 l 64 564 l 103 521 l 103 158 l 101 143 q 188 -8 101 38 l 317 96 z "},"í":{"ha":363,"x_min":1,"x_max":310,"o":"m 310 924 l 213 954 q 8 750 131 847 l 60 729 q 310 924 226 819 m 256 94 l 240 108 l 217 92 q 176 136 188 107 l 176 521 l 211 560 l 106 649 l 1 564 l 43 521 l 44 158 l 42 133 q 129 -8 42 39 l 256 94 z "},"î":{"ha":421,"x_min":4,"x_max":386,"o":"m 386 744 q 231 953 292 849 l 157 953 q 4 744 106 864 l 21 732 q 197 869 126 788 q 365 732 267 783 l 386 744 m 339 94 l 322 108 l 299 92 q 261 136 272 104 l 261 521 l 296 560 l 189 649 l 83 564 l 125 521 l 126 158 l 124 143 q 211 -10 124 33 l 339 94 z "},"ï":{"ha":453,"x_min":-1,"x_max":418,"o":"m 418 840 q 369 888 390 868 q 335 922 349 908 l 247 844 q 265 824 256 835 q 286 803 275 814 q 303 786 293 796 q 328 763 313 776 l 418 840 m 169 840 l 85 922 l -1 844 q 36 803 13 825 q 53 786 43 796 q 78 763 63 776 l 169 840 m 357 96 l 340 108 l 318 93 q 276 136 286 110 l 276 521 l 313 560 l 207 649 l 104 564 l 143 521 l 143 158 l 140 143 q 228 -8 140 35 l 357 96 z "},"ð":{"ha":597,"x_min":-7,"x_max":560,"o":"m 560 217 q 501 332 560 290 q 374 368 449 368 l 543 538 q 467 574 503 544 q 444 592 460 579 q 406 629 429 606 l 176 629 l 183 810 l -6 579 l -7 560 l 42 560 l 42 201 q 4 101 42 140 q 179 -4 81 75 l 304 104 l 289 124 l 250 93 l 176 154 l 176 558 l 307 558 l 419 453 l 225 263 q 315 274 276 274 q 399 249 369 274 q 429 174 429 225 q 408 103 429 133 q 349 42 394 81 l 282 -12 q 253 -89 253 -44 q 280 -156 253 -129 q 347 -183 307 -183 q 383 -157 383 -172 q 363 -142 383 -142 q 336 -146 354 -142 q 310 -150 318 -150 q 265 -97 265 -137 q 311 -22 265 -50 q 426 41 386 18 q 472 68 465 64 q 560 217 560 124 z "},"ñ":{"ha":615,"x_min":0,"x_max":569,"o":"m 496 893 l 471 901 l 450 868 q 408 858 413 858 q 306 879 374 858 q 203 900 236 900 q 117 844 147 900 q 100 812 107 825 q 89 789 93 799 l 113 782 l 132 821 l 158 821 q 205 814 171 821 q 297 793 239 807 q 379 782 346 782 q 454 821 425 782 l 496 893 m 569 94 l 556 108 l 526 92 q 488 136 497 111 l 488 501 q 518 547 503 525 q 549 589 533 569 l 535 604 l 475 557 l 379 646 q 304 582 349 618 q 201 503 260 546 q 114 649 201 596 l 0 544 l 14 529 l 36 544 q 69 481 69 517 l 69 124 l 31 81 l 136 -8 l 236 81 l 199 128 l 199 472 l 297 544 l 360 490 l 361 158 q 376 61 361 99 q 444 -8 394 22 l 569 94 z "},"ò":{"ha":518,"x_min":11,"x_max":467,"o":"m 385 750 q 176 954 261 847 l 85 924 q 335 729 169 814 l 385 750 m 467 99 l 467 551 q 246 649 376 564 q 49 538 160 568 l 49 208 q 11 101 49 132 q 261 -8 151 72 q 467 99 344 63 m 336 483 l 335 101 q 274 122 310 108 q 223 142 247 132 q 175 161 199 151 l 176 544 l 336 483 z "},"ó":{"ha":518,"x_min":11,"x_max":467,"o":"m 451 924 l 354 954 q 151 750 276 856 l 200 729 q 451 924 364 818 m 467 99 l 467 551 q 246 649 376 564 q 49 538 160 568 l 49 208 q 11 101 49 132 q 261 -8 151 72 q 467 99 344 63 m 336 483 l 335 101 q 274 122 310 108 q 223 142 247 132 q 175 161 199 151 l 176 544 l 336 483 z "},"ô":{"ha":518,"x_min":11,"x_max":467,"o":"m 443 744 q 365 841 404 789 q 288 953 326 893 l 218 953 q 142 843 181 894 q 63 744 103 792 l 78 731 q 179 798 136 763 q 254 869 222 833 q 424 731 313 792 l 443 744 m 467 99 l 467 551 q 246 649 376 564 q 49 538 160 568 l 49 208 q 11 101 49 132 q 261 -8 151 72 q 467 99 344 63 m 336 483 l 335 101 q 274 122 310 108 q 223 142 247 132 q 175 161 199 151 l 176 544 l 336 483 z "},"õ":{"ha":518,"x_min":11,"x_max":467,"o":"m 457 893 l 432 901 l 411 868 q 390 863 404 868 q 368 858 375 858 q 239 888 340 858 q 164 900 194 900 q 78 844 108 900 q 61 812 68 825 q 50 789 54 799 l 72 782 l 94 821 l 119 821 q 167 814 133 821 q 260 793 201 807 q 340 782 308 782 q 417 821 388 782 q 457 893 436 858 m 467 99 l 467 551 q 246 649 376 564 q 49 538 160 568 l 49 208 q 11 101 49 132 q 261 -8 151 72 q 467 99 344 63 m 336 483 l 335 101 q 274 122 310 108 q 223 142 247 132 q 175 161 199 151 l 176 544 l 336 483 z "},"ö":{"ha":518,"x_min":11,"x_max":467,"o":"m 382 864 l 290 938 q 196 893 238 908 l 196 743 q 176 703 196 718 q 274 674 225 694 l 322 701 q 351 717 339 711 q 374 729 364 724 l 364 738 l 318 714 l 263 735 l 263 792 q 336 839 333 836 q 382 864 346 844 m 467 99 l 467 551 q 246 649 376 564 q 49 538 160 568 l 49 208 q 11 101 49 132 q 261 -8 151 72 q 467 99 344 63 m 322 846 l 263 808 l 263 896 l 322 846 m 336 101 q 275 122 311 108 q 224 142 249 132 q 176 161 200 151 l 176 544 l 336 483 l 336 101 z "},"÷":{"ha":671,"x_min":40,"x_max":638,"o":"m 433 629 q 388 674 414 647 q 328 740 361 701 l 217 635 q 264 576 239 604 q 319 525 289 549 l 433 629 m 638 375 l 638 468 l 40 468 l 40 375 l 638 375 m 433 204 q 388 249 414 222 q 328 315 361 276 l 217 210 q 264 151 239 179 q 319 100 289 124 l 433 204 z "},"ø":{"ha":518,"x_min":11,"x_max":467,"o":"m 467 99 l 467 551 q 404 569 432 558 l 350 592 l 388 729 l 333 729 l 299 622 q 289 628 296 625 q 272 636 282 631 q 262 642 268 639 q 246 649 256 644 q 49 538 160 568 l 49 208 q 11 101 49 132 q 88 79 54 90 q 146 54 122 68 l 113 -97 l 164 -97 l 200 28 q 232 12 217 21 q 261 -8 247 3 q 467 99 344 63 m 342 490 l 340 94 q 303 107 321 101 q 269 118 285 113 q 247 126 257 122 q 228 132 236 129 l 317 497 l 342 490 m 278 510 l 189 150 l 171 154 l 172 551 q 278 510 228 533 z "},"ù":{"ha":615,"x_min":3,"x_max":571,"o":"m 419 750 q 214 954 299 846 l 122 924 q 371 729 208 815 l 419 750 m 571 94 l 557 108 l 532 92 q 490 136 490 114 l 490 532 l 531 567 l 428 649 l 329 567 l 364 525 l 363 176 l 250 96 q 200 163 200 122 l 200 532 l 242 565 l 136 647 l 3 544 l 17 529 l 49 549 l 74 525 l 74 158 q 161 -3 74 53 l 360 139 q 447 -8 360 51 l 571 94 z "},"ú":{"ha":615,"x_min":3,"x_max":571,"o":"m 486 924 l 392 954 q 189 750 306 846 l 238 729 q 486 924 401 818 m 571 94 l 557 108 l 532 92 q 490 136 490 114 l 490 532 l 531 567 l 428 649 l 329 567 l 364 525 l 363 176 l 250 96 q 200 163 200 122 l 200 532 l 242 565 l 136 647 l 3 544 l 17 529 l 49 549 l 74 525 l 74 158 q 161 -3 74 53 l 360 139 q 447 -8 360 51 l 571 94 z "},"û":{"ha":615,"x_min":3,"x_max":571,"o":"m 481 744 q 325 953 386 849 l 251 953 q 99 744 204 869 l 115 731 q 292 869 229 797 q 460 731 354 790 l 481 744 m 571 94 l 557 108 l 532 92 q 490 136 490 114 l 490 532 l 531 567 l 428 649 l 329 567 l 364 525 l 363 176 l 250 96 q 200 163 200 122 l 200 532 l 242 565 l 136 647 l 3 544 l 17 529 l 49 549 l 74 525 l 74 158 q 161 -3 74 53 l 360 139 q 447 -8 360 51 l 571 94 z "},"ü":{"ha":615,"x_min":3,"x_max":571,"o":"m 400 864 l 308 938 q 214 893 256 908 l 214 743 q 194 703 214 718 q 292 674 243 694 l 340 701 q 369 717 357 711 q 392 729 382 724 l 382 738 l 336 714 l 281 735 l 281 792 q 354 839 351 836 q 400 864 364 844 m 571 94 l 557 108 l 532 92 q 490 136 490 114 l 490 532 l 531 567 l 428 649 l 329 567 l 363 525 l 363 176 l 250 96 q 200 163 200 122 l 200 532 l 242 565 l 136 647 l 3 544 l 17 529 l 49 549 l 74 525 l 74 158 q 161 -3 74 53 l 360 139 q 447 -8 360 51 l 571 94 m 340 846 l 281 808 l 281 896 l 340 846 z "},"ý":{"ha":531,"x_min":-17,"x_max":514,"o":"m 494 428 q 410 647 494 558 l 222 500 q 133 649 222 601 l 0 532 l 15 514 l 60 546 q 93 481 93 514 l 93 113 q 38 22 93 94 q -17 -93 -17 -51 l -17 -104 q 125 -183 -8 -183 l 144 -183 q 224 -168 175 -183 q 283 -119 283 -150 q 281 -108 281 -110 q 264 -99 275 -99 q 206 -135 246 -99 q 119 -158 174 -158 q 49 -143 79 -158 q 11 -86 11 -125 l 10 -79 q 104 29 10 -32 q 176 69 144 51 q 232 99 208 86 q 413 231 344 156 q 494 428 494 321 m 378 389 q 328 239 378 315 q 218 124 282 172 l 218 464 l 313 538 q 378 389 378 481 m 514 924 l 419 954 q 217 750 333 846 l 265 729 q 514 924 429 818 z "},"þ":{"ha":885,"x_min":8,"x_max":836,"o":"m 836 96 l 819 114 l 793 100 q 757 194 769 132 q 742 259 749 233 q 731 296 736 285 q 653 396 708 356 q 729 469 697 440 q 781 514 761 499 l 654 647 l 474 489 l 474 749 q 536 874 474 824 q 404 806 456 865 l 385 804 q 294 847 347 835 q 343 753 343 799 l 343 569 l 217 649 q 135 586 178 614 q 46 539 93 558 l 46 185 q 8 86 46 119 q 200 -3 100 67 q 268 46 239 25 q 317 82 297 67 q 366 65 342 75 q 414 43 390 54 q 510 -7 451 24 l 643 133 q 710 -3 658 35 l 836 96 m 668 453 l 472 285 l 472 444 l 582 544 l 668 453 m 636 172 l 556 89 l 472 132 l 472 247 l 554 313 q 636 172 626 251 m 343 185 q 333 119 343 140 l 294 92 l 172 153 l 172 547 l 297 476 l 343 542 l 343 185 z "},"ÿ":{"ha":550,"x_min":-3,"x_max":508,"o":"m 472 840 q 433 878 453 858 q 390 922 413 899 l 300 844 l 383 764 l 472 840 m 222 840 l 139 922 l 51 844 q 85 809 64 829 q 133 763 106 789 l 222 840 m 508 428 q 424 647 508 558 l 236 500 q 147 649 236 601 l 14 532 l 29 514 l 74 546 q 107 481 107 514 l 107 113 q 51 22 107 94 q -3 -93 -3 -51 l -3 -104 q 139 -183 3 -183 l 158 -183 q 238 -168 189 -183 q 297 -119 297 -150 q 294 -108 294 -110 q 278 -99 289 -99 q 219 -135 260 -99 q 133 -158 188 -158 q 63 -143 93 -158 q 25 -86 25 -125 l 24 -79 q 118 29 24 -32 q 190 69 158 51 q 246 99 222 86 q 426 231 358 156 q 508 428 508 321 m 392 389 q 343 240 392 318 q 236 124 299 169 l 232 464 l 326 538 q 392 389 392 481 z "},"":{"ha":0,"x_min":0,"x_max":0,"o":""},"":{"ha":447,"x_min":0,"x_max":0,"o":""},"":{"ha":694,"x_min":0,"x_max":0,"o":""},"":{"ha":397,"x_min":8,"x_max":356,"o":"m 356 436 l 339 436 l 321 392 l 61 390 l 8 242 l 28 242 l 44 278 l 303 278 l 356 436 z "},"":{"ha":371,"x_min":0,"x_max":354,"o":"m 354 842 l 222 874 q 68 771 143 804 l 68 629 l 11 629 l 0 558 l 68 558 l 68 201 q 32 97 68 133 q 217 -7 110 75 q 278 49 247 21 q 339 104 308 76 l 322 122 l 290 97 l 200 146 l 200 771 l 326 746 l 354 842 z "},"":{"ha":689,"x_min":4,"x_max":651,"o":"m 651 119 l 636 136 l 589 97 l 489 161 l 489 558 l 583 558 l 593 629 l 489 629 l 489 771 l 608 746 l 636 842 l 503 874 q 351 771 424 803 l 351 629 l 215 629 l 215 771 l 335 746 l 363 842 l 229 874 q 78 771 150 803 l 78 629 l 17 629 l 4 558 l 75 558 l 75 201 q 40 101 75 136 q 240 -4 165 53 l 344 89 q 435 47 393 69 q 514 -4 478 24 l 651 119 m 349 201 q 314 97 349 124 l 215 161 l 215 558 l 349 558 l 349 201 z "},"":{"ha":1090,"x_min":0,"x_max":1043,"o":"m 1043 144 l 1043 483 q 951 646 1043 585 l 757 503 l 757 749 q 817 875 757 824 q 683 806 744 875 l 663 804 q 576 850 628 831 l 574 847 q 621 708 621 804 l 621 569 l 494 649 q 413 586 456 614 q 324 539 371 558 l 324 185 q 290 97 324 111 l 200 146 l 200 771 l 326 746 l 354 842 l 222 874 q 68 771 143 804 l 68 629 l 11 629 l 0 558 l 68 558 l 68 201 q 32 97 68 133 q 217 -7 110 75 q 313 81 279 53 q 478 -3 386 60 q 532 35 500 11 l 583 74 l 685 -8 l 790 83 l 754 124 l 754 467 l 864 549 q 917 483 908 521 l 917 94 q 843 -60 917 -6 q 781 -94 824 -74 q 671 -140 739 -114 l 675 -149 q 914 -58 819 -121 q 1043 144 1043 22 m 621 128 l 572 92 l 450 153 l 450 547 l 575 476 l 621 542 l 621 128 z "},"":{"ha":957,"x_min":4,"x_max":935,"o":"m 935 104 l 918 122 l 885 97 l 783 161 l 783 746 q 851 871 783 821 q 713 807 772 860 q 647 672 647 750 l 647 201 q 589 97 647 124 l 489 161 l 489 558 l 583 558 l 593 629 l 489 629 l 489 771 l 608 746 l 636 842 l 503 874 q 351 771 424 803 l 351 629 l 215 629 l 215 771 l 335 746 l 363 842 l 229 874 q 78 771 150 803 l 78 629 l 17 629 l 4 558 l 75 558 l 75 201 q 40 101 75 136 q 240 -4 165 53 l 344 89 q 514 -4 450 46 l 626 96 q 808 -4 743 53 l 935 104 m 349 201 q 314 97 349 124 l 215 161 l 215 558 l 349 558 l 349 201 z "},"":{"ha":683,"x_min":4,"x_max":629,"o":"m 629 558 l 629 629 l 488 629 l 486 806 l 350 629 l 215 629 l 215 771 l 335 746 l 363 842 l 229 874 q 78 771 150 803 l 78 629 l 17 629 l 4 558 l 75 558 l 75 201 q 40 101 75 136 q 240 -4 165 53 l 344 89 q 413 51 376 75 q 490 -4 450 28 l 615 104 l 600 124 l 561 93 l 488 154 l 488 558 l 629 558 m 353 201 q 315 97 353 118 l 215 161 l 215 558 l 353 558 l 353 201 z "},"":{"ha":858,"x_min":0,"x_max":804,"o":"m 804 128 l 804 436 q 665 649 804 601 l 522 514 q 426 650 510 606 l 310 546 l 325 535 l 358 556 q 390 474 390 536 l 390 157 q 310 131 349 157 q 279 104 297 122 l 200 146 l 200 771 l 326 746 l 354 842 l 222 874 q 68 771 143 804 l 68 629 l 11 629 l 0 558 l 68 558 l 68 201 q 32 97 68 133 q 217 -7 110 75 q 242 19 231 8 q 264 39 254 31 q 365 92 325 92 q 388 86 383 92 l 390 -6 q 338 -154 393 -87 q 392 -133 364 -150 q 411 -119 399 -128 q 439 -96 424 -110 q 469 -129 458 -117 q 486 -144 481 -142 q 581 -183 521 -175 q 528 -90 539 -126 q 515 4 511 -40 l 519 54 q 636 0 596 17 q 687 45 667 28 q 717 69 707 63 q 804 128 764 104 m 681 104 q 602 131 642 118 q 519 154 563 143 l 519 472 l 603 546 q 629 533 615 542 q 654 514 643 525 q 673 491 665 503 q 681 468 681 479 l 681 104 z "},"":{"ha":653,"x_min":0,"x_max":618,"o":"m 618 558 l 618 629 l 476 629 l 475 806 l 293 579 l 292 560 l 342 560 l 342 201 q 290 97 342 122 l 200 146 l 200 771 l 326 746 l 354 842 l 222 874 q 68 771 143 804 l 68 629 l 11 629 l 0 558 l 68 558 l 68 201 q 32 97 68 133 q 217 -7 110 75 q 271 43 231 7 q 301 71 288 58 q 326 93 315 83 q 479 -4 394 64 l 604 104 l 589 124 l 550 93 l 476 154 l 476 558 l 618 558 z "},"":{"ha":640,"x_min":-7,"x_max":596,"o":"m 596 558 l 596 629 l 454 629 l 453 806 l 311 629 l 176 629 l 175 806 l -6 579 l -7 560 l 42 560 l 42 201 q 4 101 42 140 q 179 -4 81 75 l 301 94 q 457 -4 378 63 l 582 104 l 567 124 l 528 93 l 454 154 l 454 558 l 596 558 m 319 201 q 303 129 319 156 l 250 93 l 176 154 l 176 558 l 319 558 l 319 201 z "},"":{"ha":1981,"x_min":15,"x_max":1965,"o":"m 1965 -51 l 1965 1111 l 15 1111 l 15 -51 l 1965 -51 m 1931 781 q 1900 711 1931 740 q 1829 682 1869 682 l 1626 682 q 1578 619 1578 682 l 1578 200 q 1604 142 1578 158 l 1604 64 q 1504 183 1504 86 l 1504 631 q 1664 764 1504 764 q 1731 760 1686 764 q 1771 758 1754 758 q 1799 757 1788 757 q 1854 786 1854 757 q 1797 813 1854 813 q 1769 812 1786 813 q 1731 810 1753 811 q 1692 808 1708 808 q 1665 807 1676 807 q 1504 929 1504 807 l 1504 1111 l 1583 1111 l 1583 929 q 1635 881 1583 881 l 1840 881 q 1904 851 1878 881 q 1931 781 1931 822 m 1393 189 q 1360 101 1393 135 q 1274 67 1328 67 l 882 67 q 813 94 840 67 q 785 164 785 122 q 810 236 785 207 q 875 265 835 265 l 1263 265 l 1263 192 l 888 192 q 860 167 860 192 q 890 138 860 138 l 1238 138 q 1322 200 1322 138 l 1322 306 q 1260 368 1322 368 l 913 368 q 819 403 854 368 q 785 496 785 438 l 785 619 q 822 722 785 682 q 921 761 858 761 l 1263 761 q 1386 656 1368 761 l 1317 656 q 1257 685 1289 685 l 918 685 q 861 625 861 685 l 861 493 q 918 442 861 442 l 1260 442 q 1358 410 1322 442 q 1393 319 1393 378 l 1393 189 m 689 1111 l 688 161 q 658 89 688 119 q 586 58 628 58 q 514 89 542 58 q 486 165 486 119 q 485 310 486 251 q 483 400 485 368 q 363 529 481 413 l 231 658 q 193 678 211 678 q 169 669 179 678 q 158 625 158 632 l 158 194 q 207 135 158 135 l 319 135 q 354 164 338 143 l 428 164 q 321 64 408 64 l 207 64 q 85 197 85 64 l 85 656 q 121 726 85 699 q 199 750 153 750 q 271 724 244 750 l 519 478 q 563 374 563 435 l 563 164 q 589 135 563 135 q 606 145 597 135 q 614 164 614 156 l 611 1111 l 689 1111 z "}}}
